/* XPM */
static char *clctb[] = {
/* columns rows colors chars-per-pixel */
"64 64 32 1 ",
"  c #343440",
". c #353540",
"X c #353541",
"o c #403944",
"O c #4C3D47",
"+ c #58414A",
"@ c #64454E",
"# c #6F4951",
"$ c #7B4D54",
"% c #875157",
"& c #93555B",
"* c #AA5D61",
"= c #B66164",
"- c #E54341",
"; c #E54644",
": c #E64947",
"> c #E84F4E",
", c #E85251",
"< c #E95554",
"1 c #EA5857",
"2 c #EB5F5E",
"3 c #C26568",
"4 c #CD696B",
"5 c #D96D6E",
"6 c #EC6261",
"7 c #ED6564",
"8 c #EE6868",
"9 c #EE6B6B",
"0 c #EF6E6E",
"q c #E57171",
"w c #F17575",
"e c #C3E3FF",
/* pixels */
"eeeeeeeeeeeeeeeeeeeeeeeeeeeeeeeeeeeeeeeeeeeeeeeeeeeeeeeeeeeeeeee",
"eeeeeeeeeeeeeeeeeeeeeeeeeeeeeeeeeeeeeeeeeeeeeeeeeeeeeeeeeeeeeeee",
"eeeeeeeeeeeeeeeeeeeeeeeeeeeeeeeeeeeeeeeeeeeeeeeeeeeeeeeeeeeeeeee",
"eeeeeeeeeeeeeeeeeeeeeeeeeeeeeeeeeeeeeeeeeeeeeeeeeeeeeeeeeeeeeeee",
"eeeeeeeeeeeeeeeeeeeeeeeeeeeeeeeeeeeeeeeeeeeeeeeeeeeeeeeeeeeeeeee",
"eeeeeeeeeeeeeeeeeeeeeeeeeeeeeeeeeeeeeeeeeeeeeeeeeeeeeeeeeeeeeeee",
"eeeeeeeeeeeeeeeeeeeeeeeeeeeeeeeeeeeeeeeeeeeeeeeeeeeeeeeeeeeeeeee",
"eeeeeeeeeeeeeeeeeeeeeeeeeeeeeeeeeeeeeeeeeeeeeeeeeeeeeeeeeeeeeeee",
"eeeeeeeeeeeeeeeeeeeeeeeeeeeeeeeeeeeeeeeeeeeeeeeeeeeeeeeeeeeeeeee",
"eeeeeeeeeeeeeeeeeeeeeeeeeeeeeeeeeeeeeeeeeeeeeeeeeeeeeeeeeeeeeeee",
"eeeeeeeeeeeeeeeeeeeeeeeeeeeeeeeeeeeeeeeeeeeeeeeeeeeeeeeeeeeeeeee",
"eeeeeeeeeeeeeeeeeeeeeeeeeeeeeeeeeeeeeeeeeeeeeeeeeeeeeeeeeeeeeeee",
"eeeeeeeeeeeeeeeeeeeeeeeeeeeeeeeeeeeeeeeeeeeeeeeeeeeeeeeeeeeeeeee",
"eeeeeeeeeeeeeeeeeeeeeeeeeeeeeeeeeeeeeeeeeeeeeeeeeeeeeeeeeeeeeeee",
"eeeeeeeeeeeeeeeeeeeeeeeeeeeeeeeeeeeeeeeeeeeeeeeeeeeeeeeeeeeeeeee",
"eeeeeeeeeeeeeeeeeeeeeeeeeeeeeeeeeeeeeeeeeeeeeeeeeeeeeeeeeeeeeeee",
"eeeeeeeeeeeeeeeeeeeeeee XXXXXeeeeee   XX eeeeeeeeeeeeeeeeeeeeeee",
"eeeeeeeeeeeeeeeeeeee XXXXXXX  .ee  XXXXXXXX eeeeeeeeeeeeeeeeeeee",
"eeeeeeeeeeeeeeeeeeXXXXXXXXXX XXX..XXXXXXXXXXX.eeeeeeeeeeeeeeeeee",
"eeeeeeeeeeeeeeeee XXXXXXXXXX .XX..XXXXXXXXXXXX eeeeeeeeeeeeeeeee",
"eeeeeeeeeeeeeeeeX...XX#=3333%XXX.XX%3333=#XXXXX eeeeeeeeeeeeeeee",
"eeeeeeeeeeeeeeee ...+4wwwwwwww@XX@wwwwwwww4+XXXXeeeeeeeeeeeeeeee",
"eeeeeeeeeeeeeeeX...o5w01>>>,2wq++qw2,>>>10w5oXXX.eeeeeeeeeeeeeee",
"eeeeeeeeeeeeeeeXXX.3w7;;-----9wqqw9-------8w3XXXXeeeeeeeeeeeeeee",
"eeeeeeeeeeeeeeXXXX#w0;-------;8ww9;-------;0w#XXX.eeeeeeeeeeeeee",
"eeeeeeeeeeeeeeXXXX=w<---------->>----------<w=XXX.eeeeeeeeeeeeee",
"eeeeeeeeeeeeeeXXXXqw;----------------------;wq XXXeeeeeeeeeeeeee",
"eeeeeeeeeeeeeeXXXXww------------------------ww..XXeeeeeeeeeeeeee",
"eeeeeeeeeeeeee  XXqw:-----------------------wwXXXXeeeeeeeeeeeeee",
"eeeeeeeeeeeeee  XX3w<----------------------:wqXXXXeeeeeeeeeeeeee",
"eeeeeeeeeeeeee  XX&w8----------------------7w*XXX.eeeeeeeeeeeeee",
"eeeeeeeeeeeeeee XXOqw1--------------------1wwOXXXeeeeeeeeeeeeeee",
"eeeeeeeeeeeeeee.XXX%ww7------------------7ww$ XX eeeeeeeeeeeeeee",
"eeeeeeeeeeeeeee XXXX#qw2----------------2wq#..X.eeeeeeeeeeeeeeee",
"eeeeeeeeeeeeeeeeXXXXXOqw6--------------7wq+XXXX eeeeeeeeeeeeeeee",
"eeeeeeeeeeeeeeeeeXXXXX+qw6------------6wq+XXXXXeeeeeeeeeeeeeeeee",
"eeeeeeeeeeeeeeeeee ....@qw6----------6wq+XXXX.eeeeeeeeeeeeeeeeee",
"eeeeeeeeeeeeeeeeeee...XXOww6--------7wqOXXXX.eeeeeeeeeeeeeeeeeee",
"eeeeeeeeeeeeeeeeeeee  XXX@qw6------6wqOXXXX.eeeeeeeeeeeeeeeeeeee",
"eeeeeeeeeeeeeeeeeeeeeXXXXXOqw6----6w5OXXXX eeeeeeeeeeeeeeeeeeeee",
"eeeeeeeeeeeeeeeeeeeeee .XXX+qw6--6w4oXXXX eeeeeeeeeeeeeeeeeeeeee",
"eeeeeeeeeeeeeeeeeeeeeee XXXX+4w76w4oXXXX eeeeeeeeeeeeeeeeeeeeeee",
"eeeeeeeeeeeeeeeeeeeeeeee XXXXo4ww4oXXXXeeeeeeeeeeeeeeeeeeeeeeeee",
"eeeeeeeeeeeeeeeeeeeeeeeeeeXXXXo4=XXXXXeeeeeeeeeeeeeeeeeeeeeeeeee",
"eeeeeeeeeeeeeeeeeeeeeeeeeeeXXXXXXX.. eeeeeeeeeeeeeeeeeeeeeeeeeee",
"eeeeeeeeeeeeeeeeeeeeeeeeeeee XXXXX. eeeeeeeeeeeeeeeeeeeeeeeeeeee",
"eeeeeeeeeeeeeeeeeeeeeeeeeeeee.XXX  eeeeeeeeeeeeeeeeeeeeeeeeeeeee",
"eeeeeeeeeeeeeeeeeeeeeeeeeeeeeee Xeeeeeeeeeeeeeeeeeeeeeeeeeeeeeee",
"eeeeeeeeeeeeeeeeeeeeeeeeeeeeeeeeeeeeeeeeeeeeeeeeeeeeeeeeeeeeeeee",
"eeeeeeeeeeeeeeeeeeeeeeeeeeeeeeeeeeeeeeeeeeeeeeeeeeeeeeeeeeeeeeee",
"eeeeeeeeeeeeeeeeeeeeeeeeeeeeeeeeeeeeeeeeeeeeeeeeeeeeeeeeeeeeeeee",
"eeeeeeeeeeeeeeeeeeeeeeeeeeeeeeeeeeeeeeeeeeeeeeeeeeeeeeeeeeeeeeee",
"eeeeeeeeeeeeeeeeeeeeeeeeeeeeeeeeeeeeeeeeeeeeeeeeeeeeeeeeeeeeeeee",
"eeeeeeeeeeeeeeeeeeeeeeeeeeeeeeeeeeeeeeeeeeeeeeeeeeeeeeeeeeeeeeee",
"eeeeeeeeeeeeeeeeeeeeeeeeeeeeeeeeeeeeeeeeeeeeeeeeeeeeeeeeeeeeeeee",
"eeeeeeeeeeeeeeeeeeeeeeeeeeeeeeeeeeeeeeeeeeeeeeeeeeeeeeeeeeeeeeee",
"eeeeeeeeeeeeeeeeeeeeeeeeeeeeeeeeeeeeeeeeeeeeeeeeeeeeeeeeeeeeeeee",
"eeeeeeeeeeeeeeeeeeeeeeeeeeeeeeeeeeeeeeeeeeeeeeeeeeeeeeeeeeeeeeee",
"eeeeeeeeeeeeeeeeeeeeeeeeeeeeeeeeeeeeeeeeeeeeeeeeeeeeeeeeeeeeeeee",
"eeeeeeeeeeeeeeeeeeeeeeeeeeeeeeeeeeeeeeeeeeeeeeeeeeeeeeeeeeeeeeee",
"eeeeeeeeeeeeeeeeeeeeeeeeeeeeeeeeeeeeeeeeeeeeeeeeeeeeeeeeeeeeeeee",
"eeeeeeeeeeeeeeeeeeeeeeeeeeeeeeeeeeeeeeeeeeeeeeeeeeeeeeeeeeeeeeee",
"eeeeeeeeeeeeeeeeeeeeeeeeeeeeeeeeeeeeeeeeeeeeeeeeeeeeeeeeeeeeeeee",
"eeeeeeeeeeeeeeeeeeeeeeeeeeeeeeeeeeeeeeeeeeeeeeeeeeeeeeeeeeeeeeee"
};
