/* XPM */
static char *enemy[] = {
/* columns rows colors chars-per-pixel */
"64 64 214 2 ",
"   c #343440",
".  c #353540",
"X  c #353541",
"o  c #373743",
"O  c #353949",
"+  c #353B4A",
"@  c #3A3E4B",
"#  c #3C3C48",
"$  c #353E52",
"%  c #364053",
"&  c #364254",
"*  c #354159",
"=  c #37485E",
"-  c #374D66",
";  c #374F6D",
":  c #384F68",
">  c #364E72",
",  c #365174",
"<  c #385671",
"1  c #37587E",
"2  c #395C7B",
"3  c #464651",
"4  c #404756",
"5  c #4E4E58",
"6  c #53535D",
"7  c #455061",
"8  c #4B5A6C",
"9  c #5A5A64",
"0  c #5D5D67",
"q  c #516377",
"w  c #365783",
"e  c #375A85",
"r  c #385E82",
"t  c #3C5D80",
"y  c #3A6385",
"u  c #3A668C",
"i  c #3B6A8F",
"p  c #396692",
"a  c #38689F",
"s  c #3B7098",
"d  c #3B76A1",
"f  c #3C77A2",
"g  c #3A73A5",
"h  c #3A74A6",
"j  c #3D7DAC",
"k  c #3771B4",
"l  c #3873B0",
"z  c #3975B2",
"x  c #3E79B4",
"c  c #3773BC",
"v  c #566C82",
"b  c #5C768D",
"n  c #537794",
"m  c #627F98",
"M  c #3878C5",
"N  c #3879C5",
"B  c #387AC5",
"V  c #387AC6",
"C  c #387BC6",
"Z  c #387BC7",
"A  c #397CC7",
"S  c #387DC7",
"D  c #397DC7",
"F  c #397DC8",
"G  c #397EC8",
"H  c #397FC9",
"J  c #3E84B6",
"K  c #3E8BBF",
"L  c #5082A7",
"P  c #5483A7",
"I  c #6788A3",
"U  c #6D92AE",
"Y  c #3C84C1",
"T  c #3980C9",
"R  c #3A80C9",
"E  c #3A80CA",
"W  c #3A81CA",
"Q  c #3A82CA",
"!  c #3A82CB",
"~  c #3A83CB",
"^  c #3E83CB",
"/  c #3C87C8",
"(  c #3A83CC",
")  c #3A84CC",
"_  c #3B84CC",
"`  c #3A85CC",
"'  c #3B85CC",
"]  c #3B85CD",
"[  c #3A86CD",
"{  c #3B86CD",
"}  c #3B87CE",
"|  c #3B88CE",
" . c #3B89CE",
".. c #3B88CF",
"X. c #3B89CF",
"o. c #3C89CF",
"O. c #3C8ACF",
"+. c #3E90C8",
"@. c #3F91C9",
"#. c #3B8AD0",
"$. c #3C8AD0",
"%. c #3C8BD0",
"&. c #3C8BD1",
"*. c #3C8CD0",
"=. c #3C8CD1",
"-. c #3C8DD1",
";. c #3C8DD2",
":. c #3D8DD2",
">. c #3C8ED2",
",. c #3D8ED2",
"<. c #3D8ED3",
"1. c #3D8FD3",
"2. c #3D90D3",
"3. c #3D91D3",
"4. c #3D90D4",
"5. c #3D91D4",
"6. c #3D92D5",
"7. c #3D93D5",
"8. c #3E92D4",
"9. c #3E92D5",
"0. c #3E93D5",
"q. c #3E93D6",
"w. c #3E94D5",
"e. c #3E94D6",
"r. c #3E95D6",
"t. c #3E95D7",
"y. c #3E96D7",
"u. c #3F96D7",
"i. c #3F97D8",
"p. c #3F98D8",
"a. c #3F98D9",
"s. c #3F99D9",
"d. c #3F9AD9",
"f. c #3F9ADA",
"g. c #4385CC",
"h. c #4E99CD",
"j. c #458FD2",
"k. c #498FD1",
"l. c #4E91D2",
"z. c #4098D3",
"x. c #459BD4",
"c. c #409ADA",
"v. c #409BDA",
"b. c #409BDB",
"n. c #409CDB",
"m. c #409DDB",
"M. c #409DDC",
"N. c #409EDC",
"B. c #419FDD",
"V. c #449FDC",
"C. c #5095D5",
"Z. c #5097D5",
"A. c #5396D5",
"S. c #5098D7",
"D. c #559AD7",
"F. c #509AD8",
"G. c #519DD9",
"H. c #599DD8",
"J. c #45A1DE",
"K. c #4AA4DF",
"L. c #5AA0DA",
"P. c #5BA1DB",
"I. c #5FA0DA",
"U. c #58A6DE",
"Y. c #5FA4DD",
"T. c #5CA7DF",
"R. c #78A4C4",
"E. c #7EAECF",
"W. c #64A3DC",
"Q. c #64A4DC",
"!. c #65A9DF",
"~. c #69A9DE",
"^. c #70ABD4",
"/. c #4FA7E0",
"(. c #53A7E0",
"). c #53A8E0",
"_. c #53A9E1",
"`. c #54A9E1",
"'. c #58AAE1",
"]. c #59ACE2",
"[. c #5DADE3",
"{. c #5EAFE4",
"}. c #62AFE3",
"|. c #6AADE1",
" X c #6FAEE1",
".X c #63B1E5",
"XX c #6BB2E5",
"oX c #68B4E6",
"OX c #6CB7E7",
"+X c #74B2E3",
"@X c #74B4E4",
"#X c #74B4E5",
"$X c #74B5E5",
"%X c #79B6E6",
"&X c #79B7E6",
"*X c #7AB8E7",
"=X c #7AB9E7",
"-X c #7ABAE7",
";X c #71B9E8",
":X c #7ABAE8",
">X c #7EBBE8",
",X c #7BBEEA",
"<X c #7BBFEB",
"1X c #7FBDE9",
"2X c #7FBFEA",
"3X c #83B7DA",
"4X c #89C0E5",
"5X c #80C1EC",
"6X c #85C4ED",
"7X c #89C5ED",
"8X c #89C6EE",
"9X c #8AC7EE",
"0X c #8FCAF0",
"qX c #C3E3FF",
/* pixels */
"qXqXqXqXqXqXqXqXqXqXqXqXqXqXqXqXqXqXqXqXqXqXqXqXqXqXqXqXqXqXqXqXqXqXqXqXqXqXqXqXqXqXqXqXqXqXqXqXqXqXqXqXqXqXqXqXqXqXqXqXqXqXqXqX",
"qXqXqXqXqXqXqXqXqXqXqXqXqXqXqXqXqXqXqXqXqXqXqXqXqXqXqXqXqXqXqXqXqXqXqXqXqXqXqXqXqXqXqXqXqXqXqXqXqXqXqXqXqXqXqXqXqXqXqXqXqXqXqXqX",
"qXqXqXqXqXqXqXqXqXqXqXqXqXqXqXqXqXqXqXqXqXqXqXqXqXqXqXqXqXqXqXqXqXqXqXqXqXqXqXqXqXqXqXqXqXqXqXqXqXqXqXqXqXqXqXqXqXqXqXqXqXqXqXqX",
"qXqXqXqXqXqXqXqXqXqXqXqXqXqXqXqXqXqXqXqXqXqXqXqXqXqXqXqXqXqXqXqXqXqXqXqXqXqXqXqXqXqXqXqXqXqXqXqXqXqXqXqXqXqXqXqXqXqXqXqXqXqXqXqX",
"qXqXqXqXqXqXqXqXqXqXqXqXqXqXqXqXqXqXqXqXqXqXqXqXqXqXqXqXqXqXqXqXqXqXqXqXqXqXqXqXqXqXqXqXqXqXqXqXqXqXqXqXqXqXqXqXqXqXqXqXqXqXqXqX",
"qXqXqXqXqXqXqXqXqXqXqXqXqXqXqXqXqXqXqXqXqXqXqXqXqXqXqXqXqXqXqXqXqXqXqXqXqXqXqXqXqXqXqXqXqXqXqXqXqXqXqXqXqXqXqXqXqXqXqXqXqXqXqXqX",
"qXqXqXqXqXqXqXqXqXqXqXqXqXqXqXqXqXqXqXqXqXqXqXqXqXqXqXqXqXqXqXqXqXqXqXqXqXqXqXqXqXqXqXqXqXqXqXqXqXqXqXqXqXqXqXqXqXqXqXqXqXqXqXqX",
"qXqXqXqXqXqXqXqXqXqXqXqXqXqXqXqXqXqXqXqX. . . . . . . . qXqXqXqXqXqXqXqXqXqXqXqXqXqXqXqXqXqXqXqXqXqXqXqXqXqXqXqXqXqXqXqXqXqXqXqX",
"qXqXqXqXqXqXqXqXqXqXqXqXqXqXqXqXqXqX. X X X . . X X X X X X X X . qXqXqXqXqXqXqXqXqXqXqXqXqXqXqXqXqXqXqXqXqXqXqXqXqXqXqXqXqXqXqX",
"qXqXqXqXqXqXqXqXqXqXqXqXqXqXqXqXqXqXX X X X . . X X X X X X X X X X X X . qXqXqXqXqXqXqXqXqXqXqXqXqXqXqXqXqXqXqXqXqXqXqXqXqXqXqX",
"qXqXqXqXqXqXqXqXqXqXqXqXqXqXqXqXqX. X X X . . . X X X X X X X X X X X X X X X . qXqXqXqXqXqXqXqXqXqXqXqXqXqXqXqXqXqXqXqXqXqXqXqX",
"qXqXqXqXqXqXqXqXqXqXqXqXqXqXqXqXqXX X X % I 0X0X0X0X0XR.I b 8   X X X X X X X X X . qXqXqXqXqXqXqXqXqXqXqXqXqXqXqXqXqXqXqXqXqXqX",
"qXqXqXqXqXqXqXqXqXqXqXqXqXqXqXqXqX. X X I 0X0X0X0X0X0X0X0X0X0X0XR.b 7 X X X X X X X X . qXqXqXqXqXqXqXqXqXqXqXqXqXqXqXqXqXqXqXqX",
"qXqXqXqXqXqXqXqXqXqXqXqXqXqXqXqX  . X X U 0X0X0X0X0X0X0X0X0X0X0X0X0X0X4XU 7 X X X X X X X qXqXqXqXqXqXqXqXqXqXqXqXqXqXqXqXqXqXqX",
"qXqXqXqXqXqXqXqXqXqXqXqXqXqXqXqX  .     ^.U._._._.].oXOX<X0X0X0X0X0X0X0X0X0XE.b X X X X X X qXqXqXqXqXqXqXqXqXqXqXqXqXqXqXqXqXqX",
"qXqXqXqXqXqXqXqXqXqXqXqXqXqX. .       - d.d.f.f.f.f.f.B.f.J./.{.;X6X0X0X0X0X0X0X3Xv X X X X . qXqXqXqXqXqXqXqXqXqXqXqXqXqXqXqXqX",
"qXqXqXqXqXqXqXqXqXqXqXX X X . . . . X y r.r.r.p.c.a.a.b.b.b.B.f.B.B./.OX8X0X0X0X0X0XU X X X X qXqXqXqXqXqXqXqXqXqXqXqXqXqXqXqXqX",
"qXqXqXqXqXqXqXqXqX  X X X X . . X X X h 3.7.7.r.q.z.a.i.a.a.p.c.f.f.f.B.B._.OX8X0X0X0X7 X X X qXqXqXqXqXqXqXqXqXqXqXqXqXqXqXqXqX",
"qXqXqXqXqXqXqXqXX X X X X X X . X o    .<.<.3.7.1.7.7.7.q.i.i.i.f.f.f.f.f.B.f./.XX0X0X8 X X X qXqXqXqXqXqXqXqXqXqXqXqXqXqXqXqXqX",
"qXqXqXqXqXqXqX. X X X X X = y f @.f.f.f.c.c.r.r.c.7.q.7.q.q.q.i.t.p.p.p.f.f.f.f.n.{.3XX X X X qXqXqXqXqXqXqXqXqXqXqXqXqXqXqXqXqX",
"qXqXqXqXqXqX. . X X X : J B.B.f.p.B.b.b.p.p.p.f.i.i.r.i.7.7.7.7.7.7.r.r.p.i.i.i.c.p.P . X X X . X X X X X . qXqXqXqXqXqXqXqXqXqX",
"qXqXqXqXqX. . . X + J B.B.B.B.f.B.b.f.p.p.p.p.p.i.i.i.7.j.7.7.7.6.2.1.7.j.7.t.t.r.c.u . X X X X X X X X X X . qXqXqXqXqXqXqXqXqX",
"qXqXqXqXX X X X & @.B.B.B.B.B.B.p.p.p.p.i.i.p.i.i.7.q.7.i.7.7.3.3.3.<.<.1.1.1.7.7.i.$ . X X X X X X X X X X X . qXqXqXqXqXqXqXqX",
"qXqXqX. X X X + +.B.B.B.B.B.B.B.B.p.i.i.i.r.i.i.q.q.7.7.7.6.3.3.<.<.<.<.%.%.1.1.1.Y X . X X X X X 4 8 4 X X X X . qXqXqXqXqXqXqX",
"qXqX. X . . + Y J.B.B.B.B.B.B.B.B.f.p.i.q.q.i.q.q.7.j.6.3.3.3.<.<.<.%.-.;.;.O.} %.p X X X X   X q 4X0X0X8 X . . X . qXqXqXqXqXqX",
"qXqXX X . . j B.J.f.B.B.B.B.B.B.B.B.f.i.q.z.q.q.7.7.6.1.<.<.<.<.<.O.O.;.;.O.%.} ..; X X X X   = x.<X0X0X4X7 X   X X . qXqXqXqXqX",
"qXX X X . : B.B.B.B.B.B.B.B.B.B.B.B.B.f.q.7.7.7.1.6.1.1.<.<.<.<.-.-.-.;.O.;.O.} } 2 . . X   = z.B.J.<X0X0X4X7   X X X . qXqXqXqX",
"qXX X X . K B.B.B.B.B.B.B.B.B.B.B.B.B.B.b.7.1.7.1.1.1.1.<.;.;.%.O.O.O.O.} } } } } } 1 . X - z.B.B.B./.5X0X0X4X7 X X X X . qXqXqX",
"qX. X X - n.B.B.B.B.B.B.B.B.B.B.B.B.B.B.B.p.7.1.1.1.<.%.<.O.%.%.;.O.o.%.} } } } } _ ! $ - z.B.B.B.B.B.J.5X0X0X6X7 X X X X . qXqX",
". X X X s B.B.B.B.B.B.B.B.B.B.B.B.B.B.B.B.B.p.1.1.1.;.;.;.O.} ;.} } O._ } } _ ( _ _ _ z z.B.B.B.B.B.B.B.N.<X0X0X4X7 X X X X . qX",
". X X X J B.B.B.B.J.+.s i i J J.B.B.B.B.B.B.B.7.;.;.;.} O.;.} O.} j.L.$X*X*XC.( ! ! ! ! c.c.B.B.B.B.B.B.N./.5X0X0X4X7 X X X X qX",
"X X X X B.B.B.B.B.d.+       X i B.B.B.B.B.B.B.f.;.;.} ;.O.O.C.|.1X0X0X0X0X0X0X! ! ! ! H 1.B.B.B.B.B.B.B.N.f./.5X0X0X4X7 X X X . ",
"X X X X B.B.N.N.J.: X X X 5 6 3 J B.B.B.B.B.B.B.O.;.O.L.@X0X0X0X0X0X0X0X0X0X0Xk.! ! A ! <.n.B.B.B.B.B.B.B.B.B.K.0X0X0X3X  X X X ",
"X X X X B.B.B.J.K X X X # 0 0 9 < B.B.B.B.B.B.f.O.O.I.0X0X0X0X0X0X0X0X0X0X0X0XI.T ! T A -.J.B.B.B.B.B.B.B.B.B.B.0X0X0X0X  X X X ",
"X X X X B.B.N.N.J X X X X 6 0 5 : B.B.B.B.B.B.7.O.} !.0X0X0X0X0X0X0X0X0X0X0X0X+X! A A A -.B.B.B.B.B.B.B.B.B.B..X0X0X0XI X X X   ",
". X X X @.B.N.N.@.X X X X X X X 2 B.B.B.B.B.p.O.O.} D.0X0X0X0X0X0X0X0X0X0X0X0X0XA H A A r.J.B.B.B.B.B.B.B.B.{.0X0X0XU   X X X X ",
". X X X j N.N.J.B.< . . X X X X +.N.N.B.J.f.-.} } } ( 6X0X0X0X0X0X0X0X0X0X0X0X&XA Z A A B.B.B.B.B.B.B.B.B.{.0X0X0XU X X X X   qX",
". X X X y J.N.N.B.r.: X X . & f f.J.B.B.f.O.O.} } ( _ $X0X0X0X0X0X0X0X0X0X&XW.g.Z Z Z w f B.B.B.B.B.B.B.{.0X0X0XU X X X X   qXqX",
"qXX X X % N.B.B.B.B.B.K J J r.B.B.B.B.N.O.O._ } _ _ ! H.0X0X0X0X0X>XQ.l.A A Z Z Z M k + X f B.B.B.B.B.{.0X0X0XU X X . . . qXqXqX",
"qXX X X   J B.B.B.B.B.B.N.N.J.B.B.B.f.O._ } _ _ _ ! ! ! ~.&X!.D.^ A H A A Z Z Z Z Z * X X X f B.B.B.{.0X0X0XU   X X . . qXqXqXqX",
"qXX . . X - n.J.B.B.B.B.B.B.B.B.B.B.O.( } ! } Q ! ! H ! H H A A H A A A N C N N N , . . X X X f B.{.0X0X0XU X X X X . qXqXqXqXqX",
"qXqX. . X X i f.B.B.B.B.B.B.B.B.B.-.} } ! ! Q Q ! ! H H ! A ! A A A Z A N N N c *   . . X X X X L 0X0X0XU X X X X   qXqXqXqXqXqX",
"qXqX. . X X X J B.B.B.B.B.B.B.B.-.} ! Q ! ! Q Q H H H H A A A A Z Z Z B N N N e X X . . X X X X X I R.b X X X X   qXqXqXqXqXqXqX",
"qXqXqX. X X X + K B.B.B.B.B.B.2.} ! _ Q ! ! H H H H H H A A A A B Z B B N ! _ x X X . . qXX X X X X X X X X X . qXqXqXqXqXqXqXqX",
"qXqXqXqXX X X X + +.n.f.B.B.-.} ! ! Q Q ! H H H H H N Z Z Z Z Z M M A ! O.} } D.@ X X X qXqXX X X X X X X X X qXqXqXqXqXqXqXqXqX",
"qXqXqXqXX X X X X + j J.B.-.! ! ! H Q H H H C H H N H N N N N Z A O.-.O.O.O.O.*Xq X X X . qXqX. X X X X X . qXqXqXqXqXqXqXqXqXqX",
"qXqXqXqXqXX X X X X   : g _ ! ! ! H Q H Q C H A N H H N H } ;.1.<.<.<.-.;.F.*X0Xm X X X . qXqXqX. X X X . qXqXqXqXqXqXqXqXqXqXqX",
"qXqXqXqXqXqXqXX . . .     O , a l } } ` } _ ! _ ( ;.-.7.r.6.j.7.3.3.3.G.*X0X0X0Xm X X X   qXqXqXqXqXqXqXqXqXqXqXqXqXqXqXqXqXqXqX",
"qXqXqXqXqXqXqXqX. . . . X X X X 7 N.N.B.N.N.f.f.b.f.a.i.q.i.7.q.j.'.<X0X0X0X0X0X8 X X X . qXqXqXqXqXqXqXqXqXqXqXqXqXqXqXqXqXqXqX",
"qXqXqXqXqXqXqXqXqX  . . X X X X X h.B.B.B.B.N.N.B.f.b.f.c.c.'.|.8X0X0X0X0X0X4Xv X X X . qXqXqXqXqXqXqXqXqXqXqXqXqXqXqXqXqXqXqXqX",
"qXqXqXqXqXqXqXqXqXqXqX.   X X X X n /.B.B.B.B.B.B.V.(.}.<X0X0X0X0X0X0X0X3Xv X X X X X X qXqXqXqXqXqXqXqXqXqXqXqXqXqXqXqXqXqXqXqX",
"qXqXqXqXqXqXqXqXqXqXqXqXqX. X X X 8 8X<X<X<X<X<X6X0X0X0X0X0X0X0X0X0XR.b @ X X X X X . qXqXqXqXqXqXqXqXqXqXqXqXqXqXqXqXqXqXqXqXqX",
"qXqXqXqXqXqXqXqXqXqXqXqXqXqXX X X X 4X0X0X0X0X0X0X0X0X0X0X0X0X4XU 8 X X X X X X X . qXqXqXqXqXqXqXqXqXqXqXqXqXqXqXqXqXqXqXqXqXqX",
"qXqXqXqXqXqXqXqXqXqXqXqXqXqX. X X X b 0X0X0X0X0X0X0X0X0XR.b 7 X X X X X X X X . qXqXqXqXqXqXqXqXqXqXqXqXqXqXqXqXqXqXqXqXqXqXqXqX",
"qXqXqXqXqXqXqXqXqXqXqXqXqXqX. X X X X q m m m m m q 7 X X X X X X X X X X . qXqXqXqXqXqXqXqXqXqXqXqXqXqXqXqXqXqXqXqXqXqXqXqXqXqX",
"qXqXqXqXqXqXqXqXqXqXqXqXqXqXqXX X X X X X X X X       X X X X X X X X . qXqXqXqXqXqXqXqXqXqXqXqXqXqXqXqXqXqXqXqXqXqXqXqXqXqXqXqX",
"qXqXqXqXqXqXqXqXqXqXqXqXqXqXqXqXX X X X X X X X X X X X X X X X . . qXqXqXqXqXqXqXqXqXqXqXqXqXqXqXqXqXqXqXqXqXqXqXqXqXqXqXqXqXqX",
"qXqXqXqXqXqXqXqXqXqXqXqXqXqXqXqXqX. X X X X X X X X X X . . qXqXqXqXqXqXqXqXqXqXqXqXqXqXqXqXqXqXqXqXqXqXqXqXqXqXqXqXqXqXqXqXqXqX",
"qXqXqXqXqXqXqXqXqXqXqXqXqXqXqXqXqXqXqXqXqXqXqXqXqXqXqXqXqXqXqXqXqXqXqXqXqXqXqXqXqXqXqXqXqXqXqXqXqXqXqXqXqXqXqXqXqXqXqXqXqXqXqXqX",
"qXqXqXqXqXqXqXqXqXqXqXqXqXqXqXqXqXqXqXqXqXqXqXqXqXqXqXqXqXqXqXqXqXqXqXqXqXqXqXqXqXqXqXqXqXqXqXqXqXqXqXqXqXqXqXqXqXqXqXqXqXqXqXqX",
"qXqXqXqXqXqXqXqXqXqXqXqXqXqXqXqXqXqXqXqXqXqXqXqXqXqXqXqXqXqXqXqXqXqXqXqXqXqXqXqXqXqXqXqXqXqXqXqXqXqXqXqXqXqXqXqXqXqXqXqXqXqXqXqX",
"qXqXqXqXqXqXqXqXqXqXqXqXqXqXqXqXqXqXqXqXqXqXqXqXqXqXqXqXqXqXqXqXqXqXqXqXqXqXqXqXqXqXqXqXqXqXqXqXqXqXqXqXqXqXqXqXqXqXqXqXqXqXqXqX",
"qXqXqXqXqXqXqXqXqXqXqXqXqXqXqXqXqXqXqXqXqXqXqXqXqXqXqXqXqXqXqXqXqXqXqXqXqXqXqXqXqXqXqXqXqXqXqXqXqXqXqXqXqXqXqXqXqXqXqXqXqXqXqXqX",
"qXqXqXqXqXqXqXqXqXqXqXqXqXqXqXqXqXqXqXqXqXqXqXqXqXqXqXqXqXqXqXqXqXqXqXqXqXqXqXqXqXqXqXqXqXqXqXqXqXqXqXqXqXqXqXqXqXqXqXqXqXqXqXqX"
};
