/* XPM */
static char *exit[] = {
/* columns rows colors chars-per-pixel */
"64 64 89 1 ",
"  c #7D4F3F",
". c #343440",
"X c #353540",
"o c #353541",
"O c #3E3840",
"+ c #3F3941",
"@ c #4A3E42",
"# c #503E40",
"$ c #594240",
"% c #745046",
"& c #7E5C53",
"* c #8F563F",
"= c #98593E",
"- c #A15C3E",
"; c #AA5E39",
": c #AA603E",
"> c #B3633E",
", c #BC663E",
"< c #C66A3E",
"1 c #C76B3F",
"2 c #895948",
"3 c #945E48",
"4 c #9E6249",
"5 c #976A59",
"6 c #A9674A",
"7 c #BE704C",
"8 c #C96C40",
"9 c #CA6D41",
"0 c #CC6F42",
"q c #CD7043",
"w c #C97146",
"e c #CB7247",
"r c #CF7144",
"t c #D07245",
"y c #D27446",
"u c #D37547",
"i c #D57648",
"p c #D3794E",
"a c #D8794A",
"s c #D97A4B",
"d c #DB7B4C",
"f c #DC7C4D",
"g c #DE7E4F",
"h c #D87D50",
"j c #D08056",
"k c #D4875F",
"l c #DD865A",
"z c #E18253",
"x c #E08456",
"c c #E58657",
"v c #E28A5D",
"b c #C88465",
"n c #D58860",
"m c #D78E67",
"M c #DB966F",
"N c #DE9D77",
"B c #E28F63",
"V c #E09167",
"C c #E49064",
"Z c #EF9264",
"A c #E6966B",
"S c #ED986E",
"D c #F19467",
"F c #E19B73",
"G c #E89C72",
"H c #FA9F72",
"J c #EAA27A",
"K c #E2A580",
"L c #ECA881",
"P c #E8AA84",
"I c #E6AC88",
"U c #E7AD89",
"Y c #EEAF88",
"T c #ECB18C",
"R c #F0B58F",
"E c #E9B390",
"W c #EDBB98",
"Q c #F2BB96",
"! c #F4C19E",
"~ c #F0C2A1",
"^ c #F6C7A5",
"/ c #F4C9A9",
"( c #F8CDAC",
") c #F7D1B1",
"_ c #FAD3B3",
"` c #FBD8B9",
"' c #FCD9BA",
"] c #FFE0C2",
"[ c #C3E3FF",
/* pixels */
"[[[[[[[[[[[[[[[[[[[[[[[[[[[[[......[[[[[[[[[[[[[[[[[[[[[[[[[[[[[",
"[[[[[[[[[[[[[[[[[[[[[[[[[[oooooooooooo[[[[[[[[[[[[[[[[[[[[[[[[[[",
"[[[[[[[[[[[[[[[[[[[[[[[[[.oooo..ooooooo[[[[[[[[[[[[[[[[[[[[[[[[[",
"[[[[[[[[[[[[[[[[[[[[[[[[ooooooo.oooooooo[[[[[[[[[[[[[[[[[[[[[[[[",
"[[[[[[[[[[[[[[[[[[[[[[[ooo..@ ---=*#ooooo[[[[[[[[[[[[[[[[[[[[[[[",
"[[[[[[[[[[[[[[[[[[[[[[.oooO=11<<<<<<-#oooX[[[[[[[[[[[[[[[[[[[[[[",
"[[[[[[[[[[[[[[[[[[[[[oooo+;<1<<<<<<<1>+oooo[[[[[[[[[[[[[[[[[[[[[",
"[[[[[[[[[[[[[[[[[[[[[oooo=8111<<<<<111=oooo[[[[[[[[[[[[[[[[[[[[[",
"[[[[[..ooooooooooooooooo$<<<<<<<<<<<<<<$Xoooooooooooooooo..[[[[[",
"[[[ooooooooooooooooooooo*<<<<<<<<<<<<<<*XXooooooooooooooooooo[[[",
"[oooooooooooooooooXXoooo,<<<<<1<<<<<<<<,ooooooooooooooooooooooo[",
"[oooooooooooooooooo.oooo<<<<<<11<<<<<<<<ooooooooooooooooooooooo[",
"ooooo&bbHHHHHHHHHHHHHHHHHHHHHHHHHHHHHHHHHHHHHHHHHHHHHHHHbb&ooooo",
"Xooo5HHHHHHHHHHHHHHHHHHHHHHHHHHHHHHHHHHHHHHHHHHHHHHHHHHHHHH5oooX",
"ooooSHHHHHHHHHHHHHHHHHHHHHHHHHHHHHHHHHHHHHHHHHHHHHHHHHHHHHHSoooo",
"ooooHHHHHHHHHHHHHHHHHHHHHHHHHHHHHHHHHHHHHHHHHHHHHHHHHHHHHHHHoooo",
"ooooHDccggggggggggggggggggggggggggggggggggggggggggggggggccDH.Xoo",
"ooooZggggggggggggggggggggggggggggggggggggggggggggggggggggggDXXoo",
"oooozggggggggggggggggggggggggggggggggggggggggggggggggggggggzoooo",
"ooooggggy0qggggggggggggggggggggggggggggggggggggggggggu00ggggoooo",
"oooogggy<<<tggggggggggggggggggggggggggggggggggggggggy1<<ygggoooo",
"ooooggg1<1<1gggggggggggggggggggggggggggggggggggggggg11<11gggoooo",
"ooooggg01119gggggggggggggggggggggggggggggggggggggggg91110gggoooo",
"oooXgggg019gggggggggggggggggggggggggggggggggggggggggg0<1dgggoooo",
"ooooggggggggggggggggggggggggggggggggggggggggggggggghggggggggoooo",
"oooogggggggggAAAAAAAAGggggggggggggggggggggJYYYYYYYYJggggggggoooo",
"ooooggggggggC]]]]]]]]]gggggggggCgggggggggg^]]]]]]]]]ggggggggoooo",
"oooo7gggggggA]]]]]]]]]gggx(QggA]!xggQ]]]Rg(]]]]]]]]]ggggggg7oooo",
"Xooo+7ggggggA]]]]]]]]]ggB_]]Lv']](Cg^]]]^g]]]]]]]]]]gggghf7@oooX",
"[ooooo4gggggA]]]]]]]]`gv']]]]_]]]]^g^]]]^g`]]]]]]]]]ggggh4.oooo[",
"[[ooooo6ggggA]]]]Nkk11gx(]]]]]]]]`lg^]]]^g<<b]]]]J11gggg6Ooooo[[",
"[[[oooo+ggggA]]]]]]]k1gse`]]]]]]]mqg^]]]^g<1M]]]]m11gggh+.ooo[[[",
"[[[.oo.@ggggA]]]]]]]Gggg9j`]]]]]I<sg^]]]^gggY]]]]Vgggggg@XooX[[[",
"[[oooXX2ggggA]]]]]]]Ygggfn]]]]]]/ffz^]]]^gggY]]]]lgggggg2Xooo.[[",
"[ooooo%gggggA]]]]]]]Ygggv']]]]]]](zf^]]]^gggR]]]]sggggggg%Xoooo[",
".oooo3gggggzA]]]]Nkkyggx(]]]]]]]]]Qf^]]]^ggg^]]]]sgggggggg3Xoooo",
"oooo4gggggggA]]]]]]]]`hQ]]]]]T]]]]]L^]]]^ggg^]]]!gggggggggg4oooo",
"ooooggggggggA]]]]]]]]]gQ]]]]I1E]]])C^]]]^fgg_]]]~gggggggggggoooo",
"ooooggggggggA]]]]]]]]]BrM]]W1q1W]~eyT~~~Pzgg]]]]Tgggggggggggoooo",
"ooooggggggggA]]]]]]]]]Ar8jKwrg0eN<1s11111ggzU~~!Ngggggggggggoooo",
"ooooggggggggC!!~~EJKKNpfi110ggg0<qsgtqq1uggg11<<tgggggggggggoooo",
"ooooggggggggs11111118<ulgsydggggyzggggggzfggy11tugggggggggggoooo",
"ooooggggggggs1q19qyyyyggggggggggggggggggggggggggggggggggggggoooo",
"ooooggggggggggzfggggggggggggggggggggggggggggggggggggggggggggoooo",
"ooooggggu1yggggggggggggggggggggggggggggggggggggggggggy00ggggoooo",
"oooogggy<<1yggggggggggggggggggggggggggggggggggggggggy111ygggoooo",
"ooooggg1<<11gggggggggggggggggggggggggggggggggggggggg11111gggoooo",
"ooooggg9<<11gggggggggggggggggggggggggggggggggggggggg11119gggoooo",
"oooogggdq19dggggggggggggggggggggggggggggggggggggggggg011ggggXooo",
"oooo7gggggggggggggggggggggggggggggggggggggggggggggggggggggg7oooo",
"oooo2gggggggggggggggggggggggggggggggggggggggggggggggggggggg2ooo.",
"Xoooo2pggggggggggggggggggggggggggggggggggggggggggggggggggp2Xooo.",
"[ooooooooooooooooooooooo;;;;;;;;;;;;;;;;ooooooooooooooooooooooo[",
"[ooooooooooooooooooooooo;;;;;;;;;;;;;;;;ooooooooooooooooooooooo[",
"[[oooooooooooooooooooooo;;;;;;;;;;;;;;;;oooooooooooooooooooooo[[",
"[[[[oooooooooooooooooooo;;;;;;;;;;;;;;;;oooooooooooooooooooo[[[[",
"[[[[[[[[[[[[[[[[[[[[oooo<<<<<<<<11<<<<<<oooo[[[[[[[[[[[[[[[[[[[[",
"[[[[[[[[[[[[[[[[[[[[oooo<<<<<<<<11<<<<<<oooo[[[[[[[[[[[[[[[[[[[[",
"[[[[[[[[[[[[[[[[[[[[oooo<<<<<<<<1<<<<<<<oooo[[[[[[[[[[[[[[[[[[[[",
"[[[[[[[[[[[[[[[[[[[[oooo<<<<<<<<<<<<<<<<oooo[[[[[[[[[[[[[[[[[[[[",
"[[[[[[[[[[[[[[[[[[[[oooo<<<<<<<<<<<<<<<<oooo[[[[[[[[[[[[[[[[[[[[",
"[[[[[[[[[[[[[[[[[[[[oooo<<<<<<<<<<<<<<<<oooo[[[[[[[[[[[[[[[[[[[[",
"[[[[[[[[[[[[[[[[[[[[oo.o<<<<<<<<<<<<<<<<oooo[[[[[[[[[[[[[[[[[[[[",
"[[[[[[[[[[[[[[[[[[[[oo..<<<<<<<<<<<<<<<<oooo[[[[[[[[[[[[[[[[[[[["
};
