/* XPM */
static char *player_2[] = {
/* columns rows colors chars-per-pixel */
"64 64 195 2 ",
"   c #32333E",
".  c #2F313C",
"X  c #343440",
"o  c #3B3744",
"O  c #3B3945",
"+  c #3D3E49",
"@  c #413A47",
"#  c #453B49",
"$  c #4B3D4C",
"%  c #513D4D",
"&  c #42424E",
"*  c #50404F",
"=  c #444550",
"-  c #494A55",
";  c #4C4D58",
":  c #474853",
">  c #544151",
",  c #5C4354",
"<  c #534D5B",
"1  c #4E515C",
"2  c #51515C",
"3  c #6C4C5E",
"4  c #644658",
"5  c #5C5C66",
"6  c #5D5F69",
"7  c #565762",
"8  c #724E61",
"9  c #794C61",
"0  c #655C68",
"q  c #7A5266",
"w  c #7B5468",
"e  c #5F626C",
"r  c #63636C",
"t  c #6D636F",
"y  c #6A6D76",
"u  c #696E78",
"i  c #676771",
"p  c #7C6A77",
"a  c #6D727B",
"s  c #74757E",
"d  c #AD495F",
"f  c #835469",
"g  c #8A586E",
"h  c #89546B",
"j  c #8E5A71",
"k  c #945C73",
"l  c #995E76",
"z  c #AE4B60",
"x  c #BA556C",
"c  c #A45874",
"v  c #B25A78",
"b  c #9D6079",
"n  c #826C7B",
"m  c #A4627C",
"M  c #A8647E",
"N  c #B86173",
"B  c #C05E7E",
"V  c #CD637F",
"C  c #757A83",
"Z  c #767B85",
"A  c #8B7080",
"S  c #95788A",
"D  c #AD6781",
"F  c #BC6D89",
"G  c #B76B84",
"H  c #AD798E",
"J  c #CB6C8C",
"K  c #C06F8C",
"L  c #D8688A",
"P  c #C4708D",
"I  c #C57E8D",
"U  c #DD708E",
"Y  c #CB7492",
"T  c #DB7B9B",
"R  c #D47897",
"E  c #E5698F",
"W  c #E5678E",
"Q  c #E56C91",
"!  c #E96C92",
"~  c #E37495",
"^  c #EC7297",
"/  c #E17C9D",
"(  c #EE7C9E",
")  c #EE7499",
"_  c #F0779C",
"`  c #F17A9F",
"'  c #E47FA0",
"]  c #EC7CA0",
"[  c #F57CA1",
"{  c #F87CA2",
"}  c #7A818B",
"|  c #7D8893",
" . c #85858D",
".. c #868A92",
"X. c #8A919A",
"o. c #92949A",
"O. c #8D9BA5",
"+. c #939CA6",
"@. c #9DA7AF",
"#. c #A3A6AD",
"$. c #A6ABB1",
"%. c #ABB2B9",
"&. c #B4B6BA",
"*. c #C78492",
"=. c #C68697",
"-. c #C6818F",
";. c #D38EAA",
":. c #D888A5",
">. c #DF93AD",
",. c #E383A4",
"<. c #EC81A4",
"1. c #F283A6",
"2. c #F981A6",
"3. c #F586A9",
"4. c #FA86AA",
"5. c #FF8AAE",
"6. c #E395AF",
"7. c #FF8CB0",
"8. c #EC98B5",
"9. c #EA94B1",
"0. c #FE94B5",
"q. c #F49AB9",
"w. c #FF9CBB",
"e. c #F597B4",
"r. c #CFA4BB",
"t. c #D6A3BA",
"y. c #FFA1BE",
"u. c #B4BDC3",
"i. c #BABEC3",
"p. c #B7BDCA",
"a. c #A7B7C1",
"s. c #CDB6CB",
"d. c #D9BBD0",
"f. c #EBABC6",
"g. c #EBAFC9",
"h. c #FFA7C2",
"j. c #FFAAC4",
"k. c #F1A3C0",
"l. c #E6B6CE",
"z. c #E9B0C9",
"x. c #E5BCD2",
"c. c #B8CCD4",
"v. c #BCD2DB",
"b. c #C1C5CA",
"n. c #C6CDD3",
"m. c #C9C9D2",
"M. c #D3CCDB",
"N. c #DCC8DB",
"B. c #CCD1D8",
"V. c #D3D6DA",
"C. c #D4D9DC",
"Z. c #E0C2D6",
"A. c #FFCBDB",
"S. c #FFC7D9",
"D. c #EDD9DD",
"F. c #C8D3E2",
"G. c #CCDCE3",
"H. c #C6DEEB",
"J. c #C9DBE7",
"K. c #D3D3E3",
"L. c #D3DBE9",
"P. c #D9DCE4",
"I. c #EFDDE1",
"U. c #FCDDE6",
"Y. c #FCDBE5",
"T. c #CBE4ED",
"R. c #DBE1E4",
"E. c #D4E3EC",
"W. c #DAE5EB",
"Q. c #D8E9EF",
"!. c #CBE6F2",
"~. c #C6E8F3",
"^. c #CBEAF4",
"/. c #C6E6F1",
"(. c #D3EDF6",
"). c #DBECF3",
"_. c #DCF2F9",
"`. c #E4E9EC",
"'. c #EBEDEF",
"]. c #FFE8EF",
"[. c #FAE8ED",
"{. c #E8EEF2",
"}. c #FFECF2",
"|. c #EBF1F3",
" X c #E4F4FA",
".X c #EAF7FB",
"XX c #EDF8FC",
"oX c #E0F0F6",
"OX c #F2F4F5",
"+X c #FBF4F6",
"@X c #F6F7F8",
"#X c #F3FAFD",
"$X c #FBFDFE",
"%X c #FBF7F8",
"&X c #C3E3FF",
/* pixels */
"&X&X&X&X&X&X&X&X&X&X&X&X&X&X&X&X&X&X&X&X&X&X&X&X&X&X&X&X&X&X&X&X&X&X&X&X&X&X&X&X&X&X&X&X&X&X&X&X&X&X&X&X&X&X&X&X&X&X&X&X&X&X&X&X",
"&X&X&X&X&X&X&X&X&X&X&X&X&X&X&X&X&X&X&X&X&X&X&X&X&X&X&X&X&X&X&X&X&X&X&X&X&X&X&X&X&X&X&X&X&X&X&X&X&X&X&X&X&X&X&X&X&X&X&X&X&X&X&X&X",
"&X&X&X&X&X&X&X&X&X&X&X&X&X&X&X&X&X&X&X&X&X&X&X&X&X&X&X&X&X&X&X&X&X&X&X&X&X&X&X&X&X&X&X&X&X&X&X&X&X&X&X&X&X&X&X&X&X&X&X&X&X&X&X&X",
"&X&X&X&X&X&X&X&X&X&X&X&X&X&X&X&X&X&X&X&X&X&X&X&X&X&X&X&X&X&X&X&X&X&X&X&X&X&X&X&X&X&X&X&X&X&X&X&X&X&X&X&X&X&X&X&X&X&X&X&X&X&X&X&X",
"&X&X&X&X&X&X&X&X&X&X&X&X&X&X&X&X&X&X&X&X&X&X&X&X&X&X&X&X&X&X&X&X&X&X&X&X&X&X&X&X&X&X&X&X&X&X&X&X&X&X&X&X&X&X&X&X&X&X&X&X&X&X&X&X",
"&X&X&X&X&X&X&X&X&X&X&X&X&X&X&X&X&X&X&X&X&X&X&X&X&X&X&X&X&X&X&X&X&X&X&X&X&X&X&X&X&X&X&X&X&X&X&X&X&X&X&X&X&X&X&X&X&X&X&X&X&X&X&X&X",
"&X&X&X&X&X&X&X&X&X&X&X&X&X&X&X&X&X&X&X&X&X&X&X&X&X&X&X&X&X&X&X&X&X&X&X&X&X&X&X&X&X&X&X&X&X&X&X&X&X&X&X&X&X&X&X&X&X&X&X&X&X&X&X&X",
"&X&X&X&X&X&X&X&X&X&X&X&X&X&X&X&X&X&X&X&X&X&X&X&X&X&X&X&X&X&X&X&X&X&X&X&X&X&X&X&X&X&X&X&X&X&X&X&X&X&X&X&X&X&X&X&X&X&X&X&X&X&X&X&X",
"&X&X&X&X&X&X&X&X&X&X&X&X&X&X&X&X&X&X&X&X&X&X&X&X&X&X&X&X&X&X&X&X&X&X&X&X&X&X&X&X&X&X&X&X&X&X&X&X&X&X&X&X&X&X&X&X&X&X&X&X&X&X&X&X",
"&X&X&X&X&X&X&X&X&X&X&X&X&X&X&X&X&X&X&X&X&X&X&X&X&X&X&X&X&X&X&X&X&X&X&X&X&X&X&X&X&X&X&X&X&X&X&X&X&X&X&X&X&X&X&X&X&X&X&X&X&X&X&X&X",
"&X&X&X&X&X&X&X&X&X&X&X&X&X&X&X&X&X&X&X&X&X&X&X&X&X&X&X&X&X&X&X&X&X&X&X&X&X&X&X&X&X&X&X&X&X&X&X&X&X&X&X&X&X&X&X&X&X&X&X&X&X&X&X&X",
"&X&X&X&X&X&X&X&X&X&X&X&X&X&X&X&X&X&X&X&X&X&X&X&X&X&X&X&X&X&X&X&X&X&X&X&X&X&X&X&X&X&X&X&X&X&X&X&X&X&X&X&X&X&X&X&X&X&X&X&X&X&X&X&X",
"&X&X&X&X&X&X&X&X&X&X&X&X&X&X&X&X&X&X&X&X&X&X&X&X&X&X&X&X&X&X&X&X&X&X&X&X&X&X&X&X&X&X&X&X&X&X&X&X&X&X&X&X&X&X&X&X&X&X&X&X&X&X&X&X",
"&X&X&X&X&X&X&X&X&X&X&X&X&X&X&X&X&X&X&X&X&X&X&X&X&X&X&X&X&X&X&X&X&X&X&X&X&X&X&X&X&X&X&X&X&X&X&X&X&X&X&X&X&X&X&X&X&X&X&X&X&X&X&X&X",
"&X&X&X&X&X&X&X&X&X&X&X&X&X&X&X&X&X&X&X&X&X&X&X&X&X&X&X&X&X&X&X&X&X&X&X&X&X&X&X&X&X&X&X&X&X&X&X&X&X&X&X&X&X&X&X&X&X&X&X&X&X&X&X&X",
"&X&X&X&X&X&X&X&X&X&X&X&X&X&X&X&X&X&X&X&X&X&X&X&X&X&X&X&X&X&X&X&X&X&X&X&X&X&X&X&X&X&X&X&X&X&X&X&X&X&X&X&X&X&X&X&X&X&X&X&X&X&X&X&X",
"&X&X&X&X&X&X&X&X&X&X&X&X&X&X&X&X&X&X&X&X&X&X&X&X&X&X                        &X&X&X&X&X&X&X&X&X&X&X&X&X&X&X&X&X&X&X&X&X&X&X&X&X&X",
"&X&X&X&X&X&X&X&X&X&X&X&X&X&X&X&X&X&X&X&X&X&X&XX     o : 5 s  . . . .s r - +     X &X&X&X&X&X&X&X&X&X&X&X&X&X&X&X&X&X&X&X&X&X&X&X",
"&X&X&X&X&X&X&X&X&X&X&X&X&X&X&X&X&X&X&X&X&X&XX   & t $.V.'.%X%X$X%X$X%XOXR.&.s & X   X &X&X&X&X&X&X&X&X&X&X&X&X&X&X&X&X&X&X&X&X&X",
"&X&X&X&X&X&X&X&X&X&X&X&X&X&X&X&X&X&X&X&XX   O s b.OX$X$X$X$X$X$X$X$X$X$X$X$X@XB. .&   X &X&X&X&X&X&X&X&X&X&X&X&X&X&X&X&X&X&X&X&X",
"&X&X&X&X&X&X&X&X&X&X&X&X&X&X&X&X&X&X&X    2 $.OX$X$X$X%X$XOX'.'.'.'.OX%X$X$X$X$X#Xc.0     &X&X&X&X&X&X&X&X&X&X&X&X&X&X&X&X&X&X&X",
"&X&X&X&X&X&X&X&X&X&X&X&X&X&X&X&X&X&X    0 n.#X$X#X$X'.c.o.s r 6 6 r a ..&.`.$X$X%X$XR.s O X &X&X&X&X&X&X&X&X&X&X&X&X&X&X&X&X&X&X",
"&X&X&X&X&X&X&X&X&X&X&X&X&X&X&X&X&XX   5 V.$X#X$X|.&.r &                 + e #.`.$X$X%X`.C   X &X&X&X&X&X&X&X&X&X&X&X&X&X&X&X&X&X",
"&X&X&X&X&X&X&X&X&X&X&X&X&X&X&X&XX   2 n.$X#X#XC.s +   X   X X X O             r b.#X#X#XR.y   X &X&X&X&X&X&X&X&X&X&X&X&X&X&X&X&X",
"&X&X&X&X&X&X&X&X&X&X&X&X&X&X&X&X  & i.$X#X$Xn.5   X X X o X   X O & : ; 1 ; &   - %.#X#X$XB.2 X &X&X&X&X&X&X&X&X&X&X&X&X&X&X&X&X",
"&X&X&X&X&X&X&X&X&X&X&X&X&X&X&XX O +.XX#XXXV.e . X X X X     X O 2 5 e e e 7 e 1 O : &.$X#X#X&.+   &X&X&X&X&X&X&X&X&X&X&X&X&X&X&X",
"&X&X&X&X&X&X&X&X&X&X&X&X&X&X&X  r W.#XXXR.i   X X X X X   @ $ 0 t t r 7 r 2 e 5 2   2 n.XXXX|.Z   X &X&X&X&X&X&X&X&X&X&X&X&X&X&X",
"&X&X&X&X&X&X&X&X&X&X&X&X&X&XX O %.XXXX|...X X X X   @ 8 m Y :.8.8.9.:.-.n r 5 5 6 &   y `.XXXXn.&   &X&X&X&X&X&X&X&X&X&X&X&X&X&X",
"&X&X&X&X&X&X&X&X&X&X&X&X&X&X  7 R.XXXXu.&   X   O 3 P 3.7.7.w.y.y.y.y.y.8.=.p 5 5 2   O #.#XXXoXa X &X&X&X&X&X&X&X&X&X&X&X&X&X&X",
"&X&X&X&X&X&X&X&X&X&X&X&X&XX   X..XXXoXC       O k <.5.5.5.5.w.y.y.y.y.y.y.y.6.n 6 7 O   e W..X.X#.X X &X&X&X&X&X&X&X&X&X&X&X&X&X",
"&X&X&X&X&X&X&X&X&X&X&X&X&X  + u..X.Xn.:     o k 3.5.5.5.5.5.y.y.y.y.y.y.y.y.y.6.n 7 O   + u..X.XB.=   &X&X&X&X&X&X&X&X&X&X&X&X&X",
"&X&X&X&X&X&X&X&X&X&X&X&X&X  - G..X.X@.O   X f 3.7.0.0.5.5.5.w.y.y.y.y.y.y.y.y.y.>.t o X   X..X.XE.7   &X&X&X&X&X&X&X&X&X&X&X&X&X",
"&X&X&X&X&X&X&X&X&X&X&X&X&X  5 W..XoX..    * T 5.0.y.y.w.7.5.w.y.y.y.y.y.y.y.y.y.y.H o X X C oX XoXu X &X&X&X&X&X&X&X&X&X&X&X&X&X",
"&X&X&X&X&X&X&X&X&X&X&X&X&X. u Q. X).a     j 5.5.0.y.y.y.0.5.5.w.h.j.y.w.y.y.y.y.y.,.% X X 5 E. XoXZ   &X&X&X&X&X&X&X&X&X&X&X&X&X",
"&X&X&X&X&X&X&X&X&X&X&X&X&X  u ). X).u . O P 5.5.0.w.y.w.7.5.w.A.].}.].Y.j.y.y.y.7.4.f X X 7 E. X X}   &X&X&X&X&X&X&X&X&X&X&X&X&X",
"&X&X&X&X&X&X&X&X&X&X&X&X&X  u )._.Q.a . $ / 5.5.5.0.0.7.5.w.].$X$X%X+X%X[.h.w.5.5.4.D X X 7 E._.oXZ   &X&X&X&X&X&X&X&X&X&X&X&X&X",
"&X&X&X&X&X&X&X&X&X&X&X&X&X  e E._.).Z   $ <.5.5.5.5.5.5.5.S.$X$X[.=.N =.I.S.5.5.5.7.D o X u E._.).a   &X&X&X&X&X&X&X&X&X&X&X&X&X",
"&X&X&X&X&X&X&X&X&X&X&X&X&XX 1 J._._.X.  $ ,.5.5.5.5.5.4.0.].$X%X*.z z d *.[.0.4.5.5.D X . Z )._.E.e   &X&X&X&X&X&X&X&X&X&X&X&X&X",
"&X&X&X&X&X&X&X&X&X&X&X&X&XX & c._._.%.O $ R 5.5.5.5.5.5.0.+X$X[.N z z z x [.w.4.5.7.k X X +._._.J.;   &X&X&X&X&X&X&X&X&X&X&X&X&X",
"&X&X&X&X&X&X&X&X&X&X&X&X&XX O @._.(.F.1 @ R 5.5.5.5.5.5.0.}.$X+X-.d d d -.U.0.5.7.7.k X & c._._.M.w X X &X&X&X&X&X&X&X&X&X&X&X&X",
"&X&X&X&X&X&X&X&X&X&X&X&X&X&X  Z (.(.(.| + P 5.5.5.5.5.5.5.S.$X$XD.-.N I D.S.5.5.5.5.g . C E.(._.Z.T * X &X&X&X&X&X&X&X&X&X&X&X&X",
"&X&X&X&X&X&X&X&X&X&X&X&X&X&XX - v.(.(.c.2 K 5.5.5.5.7.5.5.w.].$X$X+X[.OXY.0.5.5.5.5.w + a._.(.Q.w.<.8 X &X&X&X&X&X&X&X&X&X&X&X&X",
"&X&X&X&X&X&X&X&X&X&X&X&X&X&XX X O.(.(.(.+.G 5.5.5.5.5.5.5.5.0.A.].+X}.A.0.5.5.5.5.3.8 Z !.(.(.N.2.( 4   &X&X&X&X&X&X&X&X&X&X&X&X",
"&X&X&X&X&X&X&X&X&X&X&X&X&X&X&XX 1 v.(.(.T.t.5.5.7.5.5.5.5.5.5.4.0.w.0.4.5.5.5.5.7.3.S v.(.(.E.9.[ J @ X &X&X&X&X&X&X&X&X&X&X&X&X",
"&X&X&X&X&X&X&X&X&X&X&X&X&X&X&XX X Z T.(.^.W.f.5.5.5.5.5.5.5.2.L U 1.~ V 2.5.5.5.5.q.F.(.(.^.l.( ` h     &X&X&X&X&X&X&X&X&X&X&X&X",
"&X&X&X&X&X&X&X&X&X&X&X&X&X&X&X&XX + +.!.^.^.E.g.7.5.5.5.5.5.4.U x x x L 5.5.5.5.y.L.(.^.(.M.] _ J $ X &X&X&X&X&X&X&X&X&X&X&X&X&X",
"&X&X&X&X&X&X&X&X&X&X&X&X&X&X&X&XX X < p.(.(.^.!.Z.e.5.5.5.5.5.5.<.~ ( 4.5.5.e.l.T.^.^.^.K.,.^ Q 9 X X &X&X&X&X&X&X&X&X&X&X&X&X&X",
"&X&X&X&X&X&X&X&X&X&X&X&X&X&XX X $ j Y 9.N.^.^.^.^.K.l.q.7.4.4.5.4.5.5.5.e.f.C.E.~.^.^.M.:.W ! c o X &X&X&X&X&X&X&X&X&X&X&X&X&X&X",
"&X&X&X&X&X&X&X&X&X&X&X&X&XX o q R 5.7.5.7.x.!.^.^.^.^.L.N.x.z.z.z.z.l.N.L.!.^.^.~.!.d./ W W v $ X &X&X&X&X&X&X&X&X&X&X&X&X&X&X&X",
"&X&X&X&X&X&X&X&X&X&X&X&XX O b 3.7.5.5.5.5.7.g.F.!.~.~.~.~.~.~.^.!.~.~.~.~.^.~.H.x.f.3.) W v $ X X &X&X&X&X&X&X&X&X&X&X&X&X&X&X&X",
"&X&X&X&X&X&X&X&X&X&X&X&X  3 3.5.5.5.5.5.7.5.5.9.s.F./.~.~.~.~.~.~.~.~.~.~./.J.f.7.5.5.4.v @ X   &X&X&X&X&X&X&X&X&X&X&X&X&X&X&X&X",
"&X&X&X&X&X&X&X&X&X&X&X&X  j 5.5.5.5.5.5.7.3.5.5.<.:.r.s.F.H.H.H.H.H.H.H.s.r.>.3.4.4.4.4.b X X &X&X&X&X&X&X&X&X&X&X&X&X&X&X&X&X&X",
"&X&X&X&X&X&X&X&X&X&X&X&X  q 4.7.7.5.7.<.F l / 5.5.4.] ' :.:.;.;.;.;.;.:.T ' 2.2.{ 2.2.2.M o   &X&X&X&X&X&X&X&X&X&X&X&X&X&X&X&X&X",
"&X&X&X&X&X&X&X&X&X&X&X&XX @ F 5.7.4.P 3 o % T 4.5.7.5.4.3.1.1.] <.<.<.{ 4.5.4.[ [ [ [ [ l     &X&X&X&X&X&X&X&X&X&X&X&X&X&X&X&X&X",
"&X&X&X&X&X&X&X&X&X&X&X&XX X $ j l w # X   h [ [ 4.5.5.5.7.5.5.5.7.5.7.5.7.5.[ _ _ ( _ _ h   &X&X&X&X&X&X&X&X&X&X&X&X&X&X&X&X&X&X",
"&X&X&X&X&X&X&X&X&X&X&X&X&XX X . .   X X @ J { [ [ 4.5.5.5.5.5.5.5.5.5.5.7.3.) ^ ^ ^ ) Q 4   &X&X&X&X&X&X&X&X&X&X&X&X&X&X&X&X&X&X",
"&X&X&X&X&X&X&X&X&X&X&X&X&X&X&X&X&X&XX X f 3.4.2.[ [ ( Y <.4.5.5.7.7.5.<.Y l L ! ! ! ! L @   &X&X&X&X&X&X&X&X&X&X&X&X&X&X&X&X&X&X",
"&X&X&X&X&X&X&X&X&X&X&X&X&X&X&X&X&X&XX $ R 5.5.4.2.2.G $ , w b b l l g 4 + o v ! W W ! c o   &X&X&X&X&X&X&X&X&X&X&X&X&X&X&X&X&X&X",
"&X&X&X&X&X&X&X&X&X&X&X&X&X&X&X&X&X&X  q 4.5.5.5.5.<.8     X       X   X   X 4 B W L v %   &X&X&X&X&X&X&X&X&X&X&X&X&X&X&X&X&X&X&X",
"&X&X&X&X&X&X&X&X&X&X&X&X&X&X&X&X&X&X  3 3.5.5.5.5.F O X &X&X&XX X X &X&X&X    $ 4 , o X   &X&X&X&X&X&X&X&X&X&X&X&X&X&X&X&X&X&X&X",
"&X&X&X&X&X&X&X&X&X&X&X&X&X&X&X&X&X&XX O D 4.7.7.T , X &X&X&X&X&X&X&X&X&X&X&XX X   X X X &X&X&X&X&X&X&X&X&X&X&X&X&X&X&X&X&X&X&X&X",
"&X&X&X&X&X&X&X&X&X&X&X&X&X&X&X&X&X&X&XX $ w M D 4 X X &X&X&X&X&X&X&X&X&X&X&X&X&X&X&X&X&X&X&X&X&X&X&X&X&X&X&X&X&X&X&X&X&X&X&X&X&X",
"&X&X&X&X&X&X&X&X&X&X&X&X&X&X&X&X&X&X&XX X   X X X X &X&X&X&X&X&X&X&X&X&X&X&X&X&X&X&X&X&X&X&X&X&X&X&X&X&X&X&X&X&X&X&X&X&X&X&X&X&X",
"&X&X&X&X&X&X&X&X&X&X&X&X&X&X&X&X&X&X&X&X&XX X X &X&X&X&X&X&X&X&X&X&X&X&X&X&X&X&X&X&X&X&X&X&X&X&X&X&X&X&X&X&X&X&X&X&X&X&X&X&X&X&X"
};
