/* XPM */
static char *player[] = {
/* columns rows colors chars-per-pixel */
"64 64 194 2 ",
"   c #2F323D",
".  c #32333E",
"X  c #343440",
"o  c #393643",
"O  c #3A3945",
"+  c #3D3E4A",
"@  c #413947",
"#  c #433B49",
"$  c #4A3D4C",
"%  c #42424E",
"&  c #4B414F",
"*  c #50404F",
"=  c #444550",
"-  c #474853",
";  c #494A55",
":  c #4D4E59",
">  c #544251",
",  c #5A4454",
"<  c #4F505B",
"1  c #51515C",
"2  c #64495A",
"3  c #6B4A5D",
"4  c #624457",
"5  c #565761",
"6  c #5C5C66",
"7  c #5D5F69",
"8  c #565A65",
"9  c #744F62",
"0  c #655C68",
"q  c #7B5166",
"w  c #5F626C",
"e  c #62636C",
"r  c #6D636F",
"t  c #6B6D76",
"y  c #696E78",
"u  c #676771",
"i  c #796775",
"p  c #6C717B",
"a  c #75767E",
"s  c #AD4A5F",
"d  c #82556A",
"f  c #8B566D",
"g  c #8B586F",
"h  c #805066",
"j  c #945C74",
"k  c #995F77",
"l  c #9D5F78",
"z  c #87536A",
"x  c #AE4B61",
"c  c #B15367",
"v  c #B4596D",
"b  c #9D6078",
"n  c #8B707F",
"m  c #836D7B",
"M  c #A5647D",
"N  c #A9647F",
"B  c #BB697B",
"V  c #B1607D",
"C  c #C35C76",
"Z  c #CA617B",
"A  c #6F7680",
"S  c #767A84",
"D  c #7A7B83",
"F  c #757C86",
"G  c #95788A",
"H  c #AC6781",
"J  c #AF6882",
"K  c #BC6D89",
"L  c #B66D88",
"P  c #AD7F92",
"I  c #AC748B",
"U  c #C66C89",
"Y  c #D36884",
"T  c #C5718E",
"R  c #D76F90",
"E  c #CB7492",
"W  c #C77693",
"Q  c #D37595",
"!  c #DC7294",
"~  c #DA7B9B",
"^  c #D97898",
"/  c #E16E92",
"(  c #E37E9E",
")  c #EC7C9F",
"_  c #E77698",
"`  c #F2799E",
"'  c #F1769C",
"]  c #E47FA0",
"[  c #F57DA2",
"{  c #7A818B",
"}  c #7D8893",
"|  c #85858D",
" . c #868A92",
".. c #8B939C",
"X. c #87919B",
"o. c #91939A",
"O. c #939CA5",
"+. c #9DA7AF",
"@. c #A3A7AD",
"#. c #A6ABB1",
"$. c #AAB2B9",
"%. c #B4B6BA",
"&. c #C0869C",
"*. c #D38DA9",
"=. c #D787A4",
"-. c #DE93AE",
";. c #ED82A4",
":. c #E987A8",
">. c #F383A6",
",. c #F881A7",
"<. c #F586A9",
"1. c #FB85AA",
"2. c #FF8AAE",
"3. c #E395AF",
"4. c #FF8DB1",
"5. c #E997B3",
"6. c #FD94B5",
"7. c #FF9EBC",
"8. c #F29BB8",
"9. c #CFA4BC",
"0. c #D8A8B5",
"q. c #DBB1BA",
"w. c #FFA1BE",
"e. c #A9B9C2",
"r. c #B4BDC3",
"t. c #BABDC3",
"y. c #CBBACE",
"u. c #D8B4CA",
"i. c #EBAEC8",
"p. c #ECABC5",
"a. c #FFAEC7",
"s. c #F1A4C1",
"d. c #E6B6CE",
"f. c #E9B0C9",
"g. c #E2BFC6",
"h. c #FFB1C9",
"j. c #FFB9CE",
"k. c #FFBED2",
"l. c #E4B9D0",
"z. c #B8CAD3",
"x. c #BCD2DB",
"c. c #C2C5CA",
"v. c #C8CAD2",
"b. c #DACCDD",
"n. c #D9C8DA",
"m. c #CBD1DC",
"M. c #C9D1D6",
"N. c #D3D6DA",
"B. c #D4D8DC",
"V. c #E3C3CA",
"C. c #E1C1D6",
"Z. c #E8CCD2",
"A. c #FFC3D5",
"S. c #FFC6D8",
"D. c #EAD2D7",
"F. c #CBDBE4",
"G. c #C6DEEB",
"H. c #C8D8E4",
"J. c #D3DBE9",
"K. c #D6D7E4",
"L. c #F7DFE6",
"P. c #FFDBE6",
"I. c #DBE1E4",
"U. c #D4E4EC",
"Y. c #DAE5EA",
"T. c #D8E9EF",
"R. c #CBE6F1",
"E. c #C6E8F3",
"W. c #CBEAF4",
"Q. c #C6E6F1",
"!. c #D3EDF6",
"~. c #DAEDF3",
"^. c #D7EFF8",
"/. c #D2E7F1",
"(. c #DCF1F9",
"). c #DFF0F6",
"_. c #C8E1EA",
"`. c #E4E9EC",
"'. c #EBEDEF",
"]. c #E8EEF2",
"[. c #F7EEF0",
"{. c #FBECF0",
"}. c #EBF1F3",
"|. c #E3F4F9",
" X c #EAF6FB",
".X c #EDF9FC",
"XX c #E0F0F6",
"oX c #F2F4F5",
"OX c #FEF2F5",
"+X c #F6F7F8",
"@X c #FEF7F9",
"#X c #F3FAFC",
"$X c #FCFDFE",
"%X c #C3E3FF",
/* pixels */
"%X%X%X%X%X%X%X%X%X%X%X%X%X%X%X%X%X%X%X%X%X%X%X%X%X%X%X%X%X%X%X%X%X%X%X%X%X%X%X%X%X%X%X%X%X%X%X%X%X%X%X%X%X%X%X%X%X%X%X%X%X%X%X%X",
"%X%X%X%X%X%X%X%X%X%X%X%X%X%X%X%X%X%X%X%X%X%X%X%X%X%X%X%X%X%X%X%X%X%X%X%X%X%X%X%X%X%X%X%X%X%X%X%X%X%X%X%X%X%X%X%X%X%X%X%X%X%X%X%X",
"%X%X%X%X%X%X%X%X%X%X%X%X%X%X%X%X%X%X%X%X%X%X%X%X%X%X%X%X%X%X%X%X%X%X%X%X%X%X%X%X%X%X%X%X%X%X%X%X%X%X%X%X%X%X%X%X%X%X%X%X%X%X%X%X",
"%X%X%X%X%X%X%X%X%X%X%X%X%X%X%X%X%X%X%X%X%X%X%X%X%X%X%X%X%X%X%X%X%X%X%X%X%X%X%X%X%X%X%X%X%X%X%X%X%X%X%X%X%X%X%X%X%X%X%X%X%X%X%X%X",
"%X%X%X%X%X%X%X%X%X%X%X%X%X%X%X%X%X%X%X%X%X%X%X%X%X%X%X%X%X%X%X%X%X%X%X%X%X%X%X%X%X%X%X%X%X%X%X%X%X%X%X%X%X%X%X%X%X%X%X%X%X%X%X%X",
"%X%X%X%X%X%X%X%X%X%X%X%X%X%X%X%X%X%X%X%X%X%X%X%X%X%X%X%X%X%X%X%X%X%X%X%X%X%X%X%X%X%X%X%X%X%X%X%X%X%X%X%X%X%X%X%X%X%X%X%X%X%X%X%X",
"%X%X%X%X%X%X%X%X%X%X%X%X%X%X%X%X%X%X%X%X%X%X%X%X%X%X%X%X%X%X%X%X%X%X%X%X%X%X%X%X%X%X%X%X%X%X%X%X%X%X%X%X%X%X%X%X%X%X%X%X%X%X%X%X",
"%X%X%X%X%X%X%X%X%X%X%X%X%X%X%X%X%X%X%X%X%X%X%X%X%X%X%X%X%X%X%X%X%X%X%X%X%X%X%X%X%X%X%X%X%X%X%X%X%X%X%X%X%X%X%X%X%X%X%X%X%X%X%X%X",
"%X%X%X%X%X%X%X%X%X%X%X%X%X%X%X%X%X%X%X%X%X%X%X%X%X%X%X%X%X%X%X%X%X%X%X%X%X%X%X%X%X%X%X%X%X%X%X%X%X%X%X%X%X%X%X%X%X%X%X%X%X%X%X%X",
"%X%X%X%X%X%X%X%X%X%X%X%X%X%X%X%X%X%X%X%X%X%X%X%X%X%X%X%X%X%X%X%X%X%X%X%X%X%X%X%X%X%X%X%X%X%X%X%X%X%X%X%X%X%X%X%X%X%X%X%X%X%X%X%X",
"%X%X%X%X%X%X%X%X%X%X%X%X%X%X%X%X%X%X%X%X%X%X%X%X%X%X%X%X%X%X%X%X%X%X%X%X%X%X%X%X%X%X%X%X%X%X%X%X%X%X%X%X%X%X%X%X%X%X%X%X%X%X%X%X",
"%X%X%X%X%X%X%X%X%X%X%X%X%X%X%X%X%X%X%X%X%X%X%X%X%X%X%X%X%X%X%X%X%X%X%X%X%X%X%X%X%X%X%X%X%X%X%X%X%X%X%X%X%X%X%X%X%X%X%X%X%X%X%X%X",
"%X%X%X%X%X%X%X%X%X%X%X%X%X%X%X%X%X%X%X%X%X%X%X%X%X%X%X%X%X%X%X%X%X%X%X%X%X%X%X%X%X%X%X%X%X%X%X%X%X%X%X%X%X%X%X%X%X%X%X%X%X%X%X%X",
"%X%X%X%X%X%X%X%X%X%X%X%X%X%X%X%X%X%X%X%X%X%X%X%X%X%X%X%X%X%X%X%X%X%X%X%X%X%X%X%X%X%X%X%X%X%X%X%X%X%X%X%X%X%X%X%X%X%X%X%X%X%X%X%X",
"%X%X%X%X%X%X%X%X%X%X%X%X%X%X%X%X%X%X%X%X%X%X%X%X%X%X%X%X%X%X%X%X%X%X%X%X%X%X%X%X%X%X%X%X%X%X%X%X%X%X%X%X%X%X%X%X%X%X%X%X%X%X%X%X",
"%X%X%X%X%X%X%X%X%X%X%X%X%X%X%X%X%X%X%X%X%X%X%X%X%X%X%X%X%X%X%X%X%X%X%X%X%X%X%X%X%X%X%X%X%X%X%X%X%X%X%X%X%X%X%X%X%X%X%X%X%X%X%X%X",
"%X%X%X%X%X%X%X%X%X%X%X%X%X%X%X%X%X%X%X%X%X%X%X%X%X%X. . . . . . . .   . . X %X%X%X%X%X%X%X%X%X%X%X%X%X%X%X%X%X%X%X%X%X%X%X%X%X%X",
"%X%X%X%X%X%X%X%X%X%X%X%X%X%X%X%X%X%X%X%X%X%X%XX . . O % 6 a | | | | D w ; O . . X %X%X%X%X%X%X%X%X%X%X%X%X%X%X%X%X%X%X%X%X%X%X%X",
"%X%X%X%X%X%X%X%X%X%X%X%X%X%X%X%X%X%X%X%X%X%XX . % t #.B.[.+X+X$X$X+X@X[.K.%.D % X . X %X%X%X%X%X%X%X%X%X%X%X%X%X%X%X%X%X%X%X%X%X",
"%X%X%X%X%X%X%X%X%X%X%X%X%X%X%X%X%X%X%X%XX . O a c.[.$X$X$X$X$X$X$X$X$X$X$X$X+XM.| % . X %X%X%X%X%X%X%X%X%X%X%X%X%X%X%X%X%X%X%X%X",
"%X%X%X%X%X%X%X%X%X%X%X%X%X%X%X%X%X%X%XX . 1 #.oX$X$X$X$X$XoX[.'.'.'.}.$X$X$X$X$X+Xt.w . . %X%X%X%X%X%X%X%X%X%X%X%X%X%X%X%X%X%X%X",
"%X%X%X%X%X%X%X%X%X%X%X%X%X%X%X%X%X%XX . 7 v.$X$X#X$X'.c.o.a e e 6 e a  .%.`.$X$X$X$XI.D O . %X%X%X%X%X%X%X%X%X%X%X%X%X%X%X%X%X%X",
"%X%X%X%X%X%X%X%X%X%X%X%X%X%X%X%X%XX . 6 N.$X#X#X}.%.e % . . . . . . . . O w @.`.$X+X$X`.S . X %X%X%X%X%X%X%X%X%X%X%X%X%X%X%X%X%X",
"%X%X%X%X%X%X%X%X%X%X%X%X%X%X%X%XX . 1 v.#X#X#XB.a O . . . . . . o . . . X . . u c.#X#X#XI.t . X %X%X%X%X%X%X%X%X%X%X%X%X%X%X%X%X",
"%X%X%X%X%X%X%X%X%X%X%X%X%X%X%X%X. % z.+X#X#XM.6 . . . O . . . . O % ; < < : % . ; $.+X#X#XN.5 . %X%X%X%X%X%X%X%X%X%X%X%X%X%X%X%X",
"%X%X%X%X%X%X%X%X%X%X%X%X%X%X%XX O O.oX+X#XN.w   . . . . . . . % 1 6 6 0 6 0 w 1 O ; %.#X#X#X$.% . %X%X%X%X%X%X%X%X%X%X%X%X%X%X%X",
"%X%X%X%X%X%X%X%X%X%X%X%X%X%X%X. e Y.#X.XI.u . . X . X . . @ # 0 r r e 6 e 1 6 6 < . < v.#X.X}.D . X %X%X%X%X%X%X%X%X%X%X%X%X%X%X",
"%X%X%X%X%X%X%X%X%X%X%X%X%X%XX O $..X.X}. .. O . . . @ q N E =.5.5.5.*.P m e 6 6 6 = . t ~.#X.Xc.% . %X%X%X%X%X%X%X%X%X%X%X%X%X%X",
"%X%X%X%X%X%X%X%X%X%X%X%X%X%X. 5 Y..X.Xz.O . O . O 3 T <.2.6.7.w.w.w.w.w.8.&.i 1 6 1 o O #..X X].a . %X%X%X%X%X%X%X%X%X%X%X%X%X%X",
"%X%X%X%X%X%X%X%X%X%X%X%X%XX . o. X.XXXa . . . . b <.2.2.2.2.7.w.w.w.w.w.w.w.3.n 6 5 O . w T. X.X+.X X %X%X%X%X%X%X%X%X%X%X%X%X%X",
"%X%X%X%X%X%X%X%X%X%X%X%X%X. + r. X XM.= . . @ j :.2.2.2.2.2.w.w.w.w.w.w.w.w.w.3.m 5 O . + r. X XM.= . %X%X%X%X%X%X%X%X%X%X%X%X%X",
"%X%X%X%X%X%X%X%X%X%X%X%X%X. - F. X X+.O . . d >.2.6.6.2.2.2.7.w.w.w.w.w.w.w.w.w.3.0 O . . .. X XU.5 . %X%X%X%X%X%X%X%X%X%X%X%X%X",
"%X%X%X%X%X%X%X%X%X%X%X%X%X. 7 Y. X|.|   X > ~ 2.6.7.7.7.4.2.6.w.w.w.w.w.w.w.w.w.7.I X X . p XX XT.p . %X%X%X%X%X%X%X%X%X%X%X%X%X",
"%X%X%X%X%X%X%X%X%X%X%X%X%X  y T.|.~.p . . g 2.2.6.w.w.w.6.2.4.a.A.S.A.a.w.w.w.w.7.:., X X 7 U.|.XXD . %X%X%X%X%X%X%X%X%X%X%X%X%X",
"%X%X%X%X%X%X%X%X%X%X%X%X%X. y ~.|.~.y . O T 2.2.6.7.w.7.4.4.A.@X$X$X$X@XA.w.w.7.4.2.d X X 8 U.|.XX{ . %X%X%X%X%X%X%X%X%X%X%X%X%X",
"%X%X%X%X%X%X%X%X%X%X%X%X%X. y ~.|.T.p . $ ~ 2.2.2.6.6.4.2.h.@X$X@XZ.V.D.OXA.6.2.2.4.M X   8 U.|.XXF . %X%X%X%X%X%X%X%X%X%X%X%X%X",
"%X%X%X%X%X%X%X%X%X%X%X%X%X. w U.(.~.F . $ ;.2.2.2.2.2.2.6.P.$X$Xq.v c v q.P.6.2.2.2.J X X u U.XX~.A . %X%X%X%X%X%X%X%X%X%X%X%X%X",
"%X%X%X%X%X%X%X%X%X%X%X%X%X. < F.(.(.X.. # ;.2.2.2.2.2.2.6.OX$X[.B s x s B L.6.1.2.4.H X . F ^.(.U.e . %X%X%X%X%X%X%X%X%X%X%X%X%X",
"%X%X%X%X%X%X%X%X%X%X%X%X%XX % z.(.(.$.O # ~ 2.2.2.2.2.2.6.OX$X{.B s x s B L.7.2.2.4.b . X O.(.(.F.<   %X%X%X%X%X%X%X%X%X%X%X%X%X",
"%X%X%X%X%X%X%X%X%X%X%X%X%XX O +.(.(.x.< @ Q 4.2.2.2.2.1.4.P.$X$X0.c s c 0.P.6.1.2.2.k   = z.(.(.e.% X %X%X%X%X%X%X%X%X%X%X%X%X%X",
"%X%X%X%X%X%X%X%X%X%X%X%X%X%XX F !.(.!. .o T 4.2.2.4.2.2.2.h.@X$X@XV.0.V.{.a.2.2.2.2.f   y /.^.^.X.. X %X%X%X%X%X%X%X%X%X%X%X%X%X",
"%X%X%X%X%X%X%X%X%X%X%X%X%X%XX ; x.!.^.z.1 K 4.2.2.2.2.2.2.2.j.OX$X$X$X{.h.2.2.2.2.1.d + e.^.^.G.8 . X %X%X%X%X%X%X%X%X%X%X%X%X%X",
"%X%X%X%X%X%X%X%X%X%X%X%X%X%XX X ..!.^.!.O.K 2.2.2.2.2.2.2.2.2.w.A.A.A.w.2.2.2.2.4.>.9 F R.!.^.$.& o X %X%X%X%X%X%X%X%X%X%X%X%X%X",
"%X%X%X%X%X%X%X%X%X%X%X%X%XX X $ r H.!.!.G.9.2.2.2.2.2.2.2.2.2._ ` 2.,._ 1.2.2.2.4.>.G x.!.!./.5.Q b # X %X%X%X%X%X%X%X%X%X%X%X%X",
"%X%X%X%X%X%X%X%X%X%X%X%XX O j ] ;.f./.!./.U.p.4.2.2.2.2.2.2.4.C C Y C C 1.2.2.2.2.8.H./.!.W.u.,.1.,.j X X %X%X%X%X%X%X%X%X%X%X%X",
"%X%X%X%X%X%X%X%X%X%X%X%XX q ,.2.4.4.C.W.W./.U.i.4.4.2.2.2.2.4.[ Z C Z ;.2.2.2.2.s.J.!.W.W.b.>.[ ,.2.E # . %X%X%X%X%X%X%X%X%X%X%X",
"%X%X%X%X%X%X%X%X%X%X%XX X H 4.2.4.2.6.b.W.W.W./.l.8.2.1.2.2.2.2.6.1.1.2.2.2.6.d.U.W.W.W.K.3.[ [ ,.2.Q # . %X%X%X%X%X%X%X%X%X%X%X",
"%X%X%X%X%X%X%X%X%X%X%XX X M 2.2.2.2.4.6.C.R.W.W.R.K.d.8.4.2.2.2.2.2.2.2.6.f.N.R.E.W.W.b.:.` [ [ ,.1.k X X %X%X%X%X%X%X%X%X%X%X%X",
"%X%X%X%X%X%X%X%X%X%X%X%X. 2 ] 4.4.2.2.2.6.l.G.W.E.W.E.J.b.l.f.i.f.f.l.n.J.R.E.W.E.Q.n.;./ ! ! ! E j # X %X%X%X%X%X%X%X%X%X%X%X%X",
"%X%X%X%X%X%X%X%X%X%X%X%XX X 2 J E Q ^ ] :.4.p.K.E.E.E.W.E.E.E.Q.Q.E.E.E.E.E.W.W.G.d.T q 4 $ $ # @ . X . %X%X%X%X%X%X%X%X%X%X%X%X",
"%X%X%X%X%X%X%X%X%X%X%X%X%XX . o @ # # $ 3 L 2.5.u.H.E.E.Q.E.E.E.E.E.Q.Q.E.Q.H.y.-.2.k   . X X X X X %X%X%X%X%X%X%X%X%X%X%X%X%X%X",
"%X%X%X%X%X%X%X%X%X%X%X%X%X%X%XX X . X X   f 2.2.] =.9.y.H.G.G.G.G.G.H.H.y.u.*.( <.1.q . X %X%X%X%X%X%X%X%X%X%X%X%X%X%X%X%X%X%X%X",
"%X%X%X%X%X%X%X%X%X%X%X%X%X%X%X%X%X%X%XX O H ,.2.2.1.] ] =.=.*.*.*.*.*.=.~ ] <.2.2.1.H # . %X%X%X%X%X%X%X%X%X%X%X%X%X%X%X%X%X%X%X",
"%X%X%X%X%X%X%X%X%X%X%X%X%X%X%X%X%X%XX X 3 / [ <.2.2.1.2.1.>.;.[ [ ;.;.>.1.2.2.2.2.2.1.J + X %X%X%X%X%X%X%X%X%X%X%X%X%X%X%X%X%X%X",
"%X%X%X%X%X%X%X%X%X%X%X%X%X%X%X%XX X o 3 R [ ' [ 1.2.2.2.2.2.2.2.2.2.4.2.2.2.2.2.2.2.2.1.k X X %X%X%X%X%X%X%X%X%X%X%X%X%X%X%X%X%X",
"%X%X%X%X%X%X%X%X%X%X%X%X%X%X%X%XX $ H _ [ [ ' ' [ [ 2.2.4.2.2.2.2.2.2.2.4.2.2.2.2.2.2.4.;.2 . %X%X%X%X%X%X%X%X%X%X%X%X%X%X%X%X%X",
"%X%X%X%X%X%X%X%X%X%X%X%X%X%X%XX o J 1.,.,.[ [ [ ` ! g K ;.1.2.4.4.2.1.:.E N ~ 2.2.2.2.2.2.H o . %X%X%X%X%X%X%X%X%X%X%X%X%X%X%X%X",
"%X%X%X%X%X%X%X%X%X%X%X%X%X%X%XX $ ( 2.1.1.,.[ [ _ h X O , q k b k k g 4 # X > T 2.2.2.2.4.Q # . %X%X%X%X%X%X%X%X%X%X%X%X%X%X%X%X",
"%X%X%X%X%X%X%X%X%X%X%X%X%X%X%XX $ ( 2.2.1.1.[ [ f o X X X X . . X X X X X X X , ( 2.2.2.2.E + X %X%X%X%X%X%X%X%X%X%X%X%X%X%X%X%X",
"%X%X%X%X%X%X%X%X%X%X%X%X%X%X%XX O H 4.2.2.1._ q o X %X%X%X%X%XX X X %X%X%X%XX X l 2.2.2.<.g X X %X%X%X%X%X%X%X%X%X%X%X%X%X%X%X%X",
"%X%X%X%X%X%X%X%X%X%X%X%X%X%X%X%XX $ N Q E M , X X %X%X%X%X%X%X%X%X%X%X%X%X%X%XX # j K K f O X %X%X%X%X%X%X%X%X%X%X%X%X%X%X%X%X%X",
"%X%X%X%X%X%X%X%X%X%X%X%X%X%X%X%XX X X # @ X . X %X%X%X%X%X%X%X%X%X%X%X%X%X%X%X%XX X O O X X %X%X%X%X%X%X%X%X%X%X%X%X%X%X%X%X%X%X",
"%X%X%X%X%X%X%X%X%X%X%X%X%X%X%X%X%X%XX . . . %X%X%X%X%X%X%X%X%X%X%X%X%X%X%X%X%X%X%XX X X X %X%X%X%X%X%X%X%X%X%X%X%X%X%X%X%X%X%X%X",
"%X%X%X%X%X%X%X%X%X%X%X%X%X%X%X%X%X%X%X%X%X%X%X%X%X%X%X%X%X%X%X%X%X%X%X%X%X%X%X%X%X%X%X%X%X%X%X%X%X%X%X%X%X%X%X%X%X%X%X%X%X%X%X%X"
};
