/* XPM */
static char *player_anm[] = {
/* columns rows colors chars-per-pixel */
"64 64 193 2 ",
"   c #2F313D",
".  c #32333F",
"X  c #343440",
"o  c #3A3643",
"O  c #3A3945",
"+  c #3D3D49",
"@  c #413947",
"#  c #443B49",
"$  c #4A3D4C",
"%  c #42434E",
"&  c #50404F",
"*  c #454752",
"=  c #4A4B56",
"-  c #494A55",
";  c #544151",
":  c #5B4455",
">  c #4F545F",
",  c #52535E",
"<  c #6C4B5E",
"1  c #65495A",
"2  c #4F5560",
"3  c #555762",
"4  c #565964",
"5  c #5B5B65",
"6  c #5F5E68",
"7  c #6F4D60",
"8  c #754E62",
"9  c #765064",
"0  c #7B5166",
"q  c #7D576A",
"w  c #5C626C",
"e  c #63636E",
"r  c #68626D",
"t  c #656A74",
"y  c #696E79",
"u  c #666973",
"i  c #6C727D",
"p  c #73757E",
"a  c #726773",
"s  c #AD495F",
"d  c #84556B",
"f  c #87546A",
"g  c #935C73",
"h  c #985E76",
"j  c #AE4B60",
"k  c #BA556C",
"l  c #A25F79",
"z  c #866A7A",
"x  c #996078",
"c  c #A3637C",
"v  c #AE637F",
"b  c #B86173",
"n  c #CD647E",
"m  c #757B84",
"M  c #787880",
"N  c #6F7782",
"B  c #917383",
"V  c #AC6781",
"C  c #B46985",
"Z  c #B96B87",
"A  c #BC6B88",
"S  c #A97B8F",
"D  c #AE7F92",
"F  c #C36D8B",
"G  c #C76989",
"H  c #D96C8A",
"J  c #C4718E",
"K  c #C47C8C",
"L  c #DD708E",
"P  c #CD7593",
"I  c #D27695",
"U  c #DE7C9D",
"Y  c #D37B99",
"T  c #E57495",
"R  c #EB7196",
"E  c #ED759A",
"W  c #E27D9E",
"Q  c #EB7A9C",
"!  c #F37A9F",
"~  c #F1779C",
"^  c #E97EA0",
"/  c #F57DA2",
"(  c #7D828B",
")  c #7C8792",
"_  c #83858D",
"`  c #858C94",
"'  c #898A91",
"]  c #8A929C",
"[  c #91949C",
"{  c #B98499",
"}  c #999DA4",
"|  c #9298A1",
" . c #98A0A8",
".. c #9AABB4",
"X. c #A1A5AC",
"o. c #A3A9AF",
"O. c #AAAAAF",
"+. c #ABADB2",
"@. c #B2B5BA",
"#. c #ADADB9",
"$. c #C78391",
"%. c #C88799",
"&. c #DA88A6",
"*. c #D293AE",
"=. c #EB81A3",
"-. c #E780A1",
";. c #F483A6",
":. c #F981A6",
">. c #F586A9",
",. c #FB86AA",
"<. c #FF8AAE",
"1. c #F489AB",
"2. c #FE8CB0",
"3. c #E99AB5",
"4. c #F497B7",
"5. c #FD94B5",
"6. c #FE9CBA",
"7. c #F89CBA",
"8. c #CDA4BB",
"9. c #DBA5BE",
"0. c #FFA1BE",
"q. c #F2A1BE",
"w. c #A9B9C2",
"e. c #BBBDC2",
"r. c #B3BCC3",
"t. c #CEACC2",
"y. c #CCB4C9",
"u. c #CABACE",
"i. c #D8B3C9",
"p. c #EBABC5",
"a. c #FFA7C2",
"s. c #FFAAC4",
"d. c #F0A5C1",
"f. c #E6B7CF",
"g. c #E4BCD3",
"h. c #B4C6CF",
"j. c #B8CCD5",
"k. c #BFD4DD",
"l. c #ADC1CB",
"z. c #C3C5CA",
"x. c #CACACD",
"c. c #C7CDD6",
"v. c #DEC9DB",
"b. c #C8D4DA",
"n. c #D4D4D7",
"m. c #D6DBDF",
"M. c #FFCADA",
"N. c #FFC7D9",
"B. c #EED9DD",
"V. c #E0C6D9",
"C. c #D8CFE0",
"Z. c #CBDDE9",
"A. c #C7D9E6",
"S. c #D4D5E5",
"D. c #D4DCE5",
"F. c #D1DCEA",
"G. c #DCD8E1",
"H. c #EFDDE1",
"J. c #FFD3E1",
"K. c #FCDDE6",
"L. c #F7DEE5",
"P. c #CDE3EC",
"I. c #C6E0ED",
"U. c #D3E2EA",
"Y. c #D6E8EF",
"T. c #DAE8EE",
"R. c #DBE3E7",
"E. c #C6E7F2",
"W. c #CCE6F1",
"Q. c #C6E9F3",
"!. c #CBEAF4",
"~. c #D0E7F2",
"^. c #D3EDF5",
"/. c #DBECF2",
"(. c #D7EFF8",
"). c #DCF0F7",
"_. c #DCF1F9",
"`. c #D7F0F8",
"'. c #E4E8EB",
"]. c #FFE8EF",
"[. c #FAE8ED",
"{. c #EBEFF1",
"}. c #FFECF2",
"|. c #E3F0F5",
" X c #ECF2F4",
".X c #E3F4FA",
"XX c #EAF6FA",
"oX c #EEF8FC",
"OX c #FBF4F6",
"+X c #F4FAFD",
"@X c #FCFEFE",
"#X c #F2F5F7",
"$X c #C3E3FF",
/* pixels */
"$X$X$X$X$X$X$X$X$X$X$X$X$X$X$X$X$X$X$X$X$X$X$X$X$X$X$X$X$X$X$X$X$X$X$X$X$X$X$X$X$X$X$X$X$X$X$X$X$X$X$X$X$X$X$X$X$X$X$X$X$X$X$X$X",
"$X$X$X$X$X$X$X$X$X$X$X$X$X$X$X$X$X$X$X$X$X$X$X$X$X$X$X$X$X$X$X$X$X$X$X$X$X$X$X$X$X$X$X$X$X$X$X$X$X$X$X$X$X$X$X$X$X$X$X$X$X$X$X$X",
"$X$X$X$X$X$X$X$X$X$X$X$X$X$X$X$X$X$X$X$X$X$X$X$X$X$X$X$X$X$X$X$X$X$X$X$X$X$X$X$X$X$X$X$X$X$X$X$X$X$X$X$X$X$X$X$X$X$X$X$X$X$X$X$X",
"$X$X$X$X$X$X$X$X$X$X$X$X$X$X$X$X$X$X$X$X$X$X$X$X$X$X$X$X$X$X$X$X$X$X$X$X$X$X$X$X$X$X$X$X$X$X$X$X$X$X$X$X$X$X$X$X$X$X$X$X$X$X$X$X",
"$X$X$X$X$X$X$X$X$X$X$X$X$X$X$X$X$X$X$X$X$X$X$X$X$X$X$X$X$X$X$X$X$X$X$X$X$X$X$X$X$X$X$X$X$X$X$X$X$X$X$X$X$X$X$X$X$X$X$X$X$X$X$X$X",
"$X$X$X$X$X$X$X$X$X$X$X$X$X$X$X$X$X$X$X$X$X$X$X$X$X$X$X$X$X$X$X$X$X$X$X$X$X$X$X$X$X$X$X$X$X$X$X$X$X$X$X$X$X$X$X$X$X$X$X$X$X$X$X$X",
"$X$X$X$X$X$X$X$X$X$X$X$X$X$X$X$X$X$X$X$X$X$X$X$X$X$X$X$X$X$X$X$X$X$X$X$X$X$X$X$X$X$X$X$X$X$X$X$X$X$X$X$X$X$X$X$X$X$X$X$X$X$X$X$X",
"$X$X$X$X$X$X$X$X$X$X$X$X$X$X$X$X$X$X$X$X$X$X$X$X$X$X$X$X$X$X$X$X$X$X$X$X$X$X$X$X$X$X$X$X$X$X$X$X$X$X$X$X$X$X$X$X$X$X$X$X$X$X$X$X",
"$X$X$X$X$X$X$X$X$X$X$X$X$X$X$X$X$X$X$X$X$X$X$X$X$X$X$X$X$X$X$X$X$X$X$X$X$X$X$X$X$X$X$X$X$X$X$X$X$X$X$X$X$X$X$X$X$X$X$X$X$X$X$X$X",
"$X$X$X$X$X$X$X$X$X$X$X$X$X$X$X$X$X$X$X$X$X$X$X$X$X$X$X$X$X$X$X$X$X$X$X$X$X$X$X$X$X$X$X$X$X$X$X$X$X$X$X$X$X$X$X$X$X$X$X$X$X$X$X$X",
"$X$X$X$X$X$X$X$X$X$X$X$X$X$X$X$X$X$X$X$X$X$X$X$X$X$X$X$X$X$X$X$X$X$X$X$X$X$X$X$X$X$X$X$X$X$X$X$X$X$X$X$X$X$X$X$X$X$X$X$X$X$X$X$X",
"$X$X$X$X$X$X$X$X$X$X$X$X$X$X$X$X$X$X$X$X$X$X$X$X$X$X$X$X$X$X$X$X$X$X$X$X$X$X$X$X$X$X$X$X$X$X$X$X$X$X$X$X$X$X$X$X$X$X$X$X$X$X$X$X",
"$X$X$X$X$X$X$X$X$X$X$X$X$X$X$X$X$X$X$X$X$X$X$X$X$X$X$X$X$X$X$X$X$X$X$X$X$X$X$X$X$X$X$X$X$X$X$X$X$X$X$X$X$X$X$X$X$X$X$X$X$X$X$X$X",
"$X$X$X$X$X$X$X$X$X$X$X$X$X$X$X$X$X$X$X$X$X$X$X$X$X$X$X$X. . . . . . . . o $X$X$X$X$X$X$X$X$X$X$X$X$X$X$X$X$X$X$X$X$X$X$X$X$X$X$X",
"$X$X$X$X$X$X$X$X$X$X$X$X$X$X$X$X$X$X$X$X$X$X$X$X$X. . . X % % % * % % o . . . . $X$X$X$X$X$X$X$X$X$X$X$X$X$X$X$X$X$X$X$X$X$X$X$X",
"$X$X$X$X$X$X$X$X$X$X$X$X$X$X$X$X$X$X$X$X$X$X. . . + 5 ' O.x.n.n.n.n.x.@.[ r + . . X $X$X$X$X$X$X$X$X$X$X$X$X$X$X$X$X$X$X$X$X$X$X",
"$X$X$X$X$X$X$X$X$X$X$X$X$X$X$X$X$X$X$X$X$XX . % p @.{.@X@X@X@X@X@X@X@X@X@X Xz._ = . X $X$X$X$X$X$X$X$X$X$X$X$X$X$X$X$X$X$X$X$X$X",
"$X$X$X$X$X$X$X$X$X$X$X$X$X$X$X$X$X$X$X$X. o e e.#X@X@X@X@X@X@X@X@X@X@X@X@X@X@X#Xx.p + . X $X$X$X$X$X$X$X$X$X$X$X$X$X$X$X$X$X$X$X",
"$X$X$X$X$X$X$X$X$X$X$X$X$X$X$X$X$X$X$X. + ' '.@XOX@X@X#XR.z.+.O.+.+.e.m. X@X@X@X@X XX.* . X $X$X$X$X$X$X$X$X$X$X$X$X$X$X$X$X$X$X",
"$X$X$X$X$X$X$X$X$X$X$X$X$X$X$X$X$X$X. + }  X@X+X@X{.@.p = # o o o o + - u O.R.@X@X@X#Xe.= . X $X$X$X$X$X$X$X$X$X$X$X$X$X$X$X$X$X",
"$X$X$X$X$X$X$X$X$X$X$X$X$X$X$X$X$X. o [ #X+X+X#Xh.u O . X X X X X X . . . X 5 +.{.@X+X+X@.% . $X$X$X$X$X$X$X$X$X$X$X$X$X$X$X$X$X",
"$X$X$X$X$X$X$X$X$X$X$X$X$X$X$X$XX X _ |.+X+X X} %   . . X X X X . o + % # + X O m '.+X+X#XX.+ . $X$X$X$X$X$X$X$X$X$X$X$X$X$X$X$X",
"$X$X$X$X$X$X$X$X$X$X$X$X$X$X$XX . t '.+X+X X[ +   o X X X X X X % , 5 5 5 5 , % X p '.+X+X|.( X X $X$X$X$X$X$X$X$X$X$X$X$X$X$X$X",
"$X$X$X$X$X$X$X$X$X$X$X$X$X$X$X. * z.+X+X X .+ . X o X X . X   % 4 5 5 5 5 6 6 5 % X ( |.+X+Xm.3 . $X$X$X$X$X$X$X$X$X$X$X$X$X$X$X",
"$X$X$X$X$X$X$X$X$X$X$X$X$X$XX X `  XoXoX@.% . X o . . + : 0 x S { S z a e 4 w 5 4 + o } oXoXoXX.o X $X$X$X$X$X$X$X$X$X$X$X$X$X$X",
"$X$X$X$X$X$X$X$X$X$X$X$X$X$X. * b.+XXXR.w . X X X O 9 J =.1.5.0.0.q.7.3.%.z 6 5 6 = . = c.oXXXR.3 . $X$X$X$X$X$X$X$X$X$X$X$X$X$X",
"$X$X$X$X$X$X$X$X$X$X$X$X$X$X. N |.XXXX[ X . X X ; Z 1.<.<.<.6.0.0.0.0.0.0.3.{ e 5 3 o . (  XXXXX` . X $X$X$X$X$X$X$X$X$X$X$X$X$X",
"$X$X$X$X$X$X$X$X$X$X$X$X$X. o  .oXXXU.5 . X X : Y <.<.<.<.<.6.0.0.0.0.0.0.0.0.{ r 3 o . = b.XXoXr.+ . $X$X$X$X$X$X$X$X$X$X$X$X$X",
"$X$X$X$X$X$X$X$X$X$X$X$X$X. % c.XXXXr.+ . . ; P <.<.<.<.<.<.6.0.0.0.0.0.0.0.0.7.D 5 o X o ..XXXXD.= X $X$X$X$X$X$X$X$X$X$X$X$X$X",
"$X$X$X$X$X$X$X$X$X$X$X$X$X. , U.XXXX[ . . O V <.<.6.6.5.<.<.6.0.0.0.0.0.0.0.0.0.6.z o X . ( .XXXT.e . $X$X$X$X$X$X$X$X$X$X$X$X$X",
"$X$X$X$X$X$X$X$X$X$X$X$X$X. u T..X).m . . 7 1.<.5.0.0.0.5.<.5.0.0.s.s.0.0.0.0.0.0.%.# . . e T..X/.m . $X$X$X$X$X$X$X$X$X$X$X$X$X",
"$X$X$X$X$X$X$X$X$X$X$X$X$X. y T..XT.i . o v <.<.5.0.0.0.5.<.6.J.].}.].J.0.0.0.0.5.1.7 . . 5 U..X|.( . $X$X$X$X$X$X$X$X$X$X$X$X$X",
"$X$X$X$X$X$X$X$X$X$X$X$X$X. i T._./.y   # I 2.<.2.6.6.5.<.6.].@X@XOXOXOX[.0.0.6.<.<.h X . 5 U..X).( X $X$X$X$X$X$X$X$X$X$X$X$X$X",
"$X$X$X$X$X$X$X$X$X$X$X$X$X. t Y..X/.i   $ ^ <.<.<.<.2.<.<.N.@X@XH.%.$.%.H.M.5.<.<.2.V X X 6 U..X/.m . $X$X$X$X$X$X$X$X$X$X$X$X$X",
"$X$X$X$X$X$X$X$X$X$X$X$X$X. 5 P._.).)   $ -.<.<.<.<.<.<.5.].@XOX$.j j j $.L.5.<.<.2.V X   i ~._.U.y . $X$X$X$X$X$X$X$X$X$X$X$X$X",
"$X$X$X$X$X$X$X$X$X$X$X$X$X. * A._._. .X $ W <.<.<.<.<.<.5.OX@X[.b j j j b [.5.<.<.2.c X X ` _._.P.4 . $X$X$X$X$X$X$X$X$X$X$X$X$X",
"$X$X$X$X$X$X$X$X$X$X$X$X$X. + w._._.h.% @ Y <.<.<.<.<.<.2.}.@XOX$.s s s $.L.5.<.<.2.h . O #._._.k.% . $X$X$X$X$X$X$X$X$X$X$X$X$X",
"$X$X$X$X$X$X$X$X$X$X$X$X$XX X ] _._.P.t + P <.<.<.<.<.<.<.N.@X@XB.$.b $.B.N.<.<.<.<.g   2 A._._...o X $X$X$X$X$X$X$X$X$X$X$X$X$X",
"$X$X$X$X$X$X$X$X$X$X$X$X$X$XX w P.`.`...# A <.2.<.<.<.<.<.6.K.@XOXOX[.OXK.5.<.<.<.<.q X ] ^.(.!.N . $X$X$X$X$X$X$X$X$X$X$X$X$X$X",
"$X$X$X$X$X$X$X$X$X$X$X$X$X$XX + @.`.`.P.i Z 2.<.<.<.<.<.<.<.6.N.}.OX}.N.5.<.<.<.2.1.0 2 k.`.(.j.* . $X$X$X$X$X$X$X$X$X$X$X$X$X$X",
"$X$X$X$X$X$X$X$X$X$X$X$X$X$XX . y Q.^.^.j.%.,.2.<.<.<.<.<.<.,.<.5.5.5.<.<.<.<.<.<.;.q ..(.^.~.) X X $X$X$X$X$X$X$X$X$X$X$X$X$X$X",
"$X$X$X$X$X$X$X$X$X$X$X$X$X$X$XX O ..^.^.!.v.5.<.<.<.<.<.<.<./ G H ;.L n ,.<.<.<.<.1.#.W.!.^.l.- . $X$X$X$X$X$X$X$X$X$X$X$X$X$X$X",
"$X$X$X$X$X$X$X$X$X$X$X$X$X$X$X$XX 2 j.!.^.^.v.4.<.<.<.<.<.<.<.L k k k H ,.<.<.<.2.g.~.^.^.A.u . X $X$X$X$X$X$X$X$X$X$X$X$X$X$X$X",
"$X$X$X$X$X$X$X$X$X$X$X$X$X$X$XX X   i A.!.~.!.C.q.<.<.<.<.<.<.<.=.T -.<.<.<.<.7.V.!.^.~.F.8.0 $ X X $X$X$X$X$X$X$X$X$X$X$X$X$X$X",
"$X$X$X$X$X$X$X$X$X$X$X$X$X$XX X # q F p.F.!.!.!.F.f.4.2.<.<.<.<.,.<.<.<.<.5.p.S.!.!.!.~.i.E R G f + . $X$X$X$X$X$X$X$X$X$X$X$X$X",
"$X$X$X$X$X$X$X$X$X$X$X$X$XX X 9 I >.<.<.p.F.!.!.!.W.S.g.d.4.2.4.2.5.4.q.f.S.E.!.!.!.F.t.E R ~ / ! v # X $X$X$X$X$X$X$X$X$X$X$X$X",
"$X$X$X$X$X$X$X$X$X$X$X$XX O h >.<.<.<.<.<.q.C.!.!.!.!.!.I.F.S.S.m.D.D.P.E.!.!.Q.!.D.3.R R ~ ~ / / :.g . X $X$X$X$X$X$X$X$X$X$X$X",
"$X$X$X$X$X$X$X$X$X$X$X$XX 7 ;.<.<.<.<.<.<.<.5.i.A.E.Q.Q.Q.Q.E.Q.E.E.E.Q.E.E.E.Z.y.4./ R ~ ~ / / :.<.A o X $X$X$X$X$X$X$X$X$X$X$X",
"$X$X$X$X$X$X$X$X$X$X$X$X. f 2.<.<.<.<.<.<.<.<.1.&.t.c.I.E.Q.Q.Q.E.E.E.E.Z.b.t.*.=.1.G G R ! / :.,.<.V o X $X$X$X$X$X$X$X$X$X$X$X",
"$X$X$X$X$X$X$X$X$X$X$X$X. 0 ,.2.<.<.<.>.J x W <.<.^ &.*.8.y.u.u.u.u.y.t.*.&.W ;.<.=.: @ < C / :.<.Q 1 . $X$X$X$X$X$X$X$X$X$X$X$X",
"$X$X$X$X$X$X$X$X$X$X$X$XX # A 2.2.<.I 9 # X d 1.<.<.,./ ^ U U U U U U ^ =.>.<.<.<.x o . . @ f Z Z 8 X X $X$X$X$X$X$X$X$X$X$X$X$X",
"$X$X$X$X$X$X$X$X$X$X$X$XX X $ h V g & . X X o c :.<.<.2.2.,.<.<.<.1.,.<.2.2.<.,.C # X $XX . X O o X X $X$X$X$X$X$X$X$X$X$X$X$X$X",
"$X$X$X$X$X$X$X$X$X$X$X$X$XX X X X X X X $X$X. O g >.<.<.<.<.<.<.<.<.<.<.<.<.<.C @ X X $X$X$XX X X X $X$X$X$X$X$X$X$X$X$X$X$X$X$X",
"$X$X$X$X$X$X$X$X$X$X$X$X$X$X$XX X $X$X$X$X$X$XX X h <.<.<.<.<.<.<.2.<.<.<.,./ f   . $X$X$X$X$X$X$X$X$X$X$X$X$X$X$X$X$X$X$X$X$X$X",
"$X$X$X$X$X$X$X$X$X$X$X$X$X$X$X$X$X$X$X$X$X$X$X$XX $ =.2.<.2.<.,.^ :.,.,.;.! ~ 8 . $X$X$X$X$X$X$X$X$X$X$X$X$X$X$X$X$X$X$X$X$X$X$X",
"$X$X$X$X$X$X$X$X$X$X$X$X$X$X$X$X$X$X$X$X$X$X$X$XX ; =.2.<.<.<.I : F / / / / T : . $X$X$X$X$X$X$X$X$X$X$X$X$X$X$X$X$X$X$X$X$X$X$X",
"$X$X$X$X$X$X$X$X$X$X$X$X$X$X$X$X$X$X$X$X$X$X$X$XX d 1.<.<.<.2.C $ I ,./ / / P @ X $X$X$X$X$X$X$X$X$X$X$X$X$X$X$X$X$X$X$X$X$X$X$X",
"$X$X$X$X$X$X$X$X$X$X$X$X$X$X$X$X$X$X$X$X$X$X$XX X V <.<.<.<.<.g 1 ^ / / ,.,.l X X $X$X$X$X$X$X$X$X$X$X$X$X$X$X$X$X$X$X$X$X$X$X$X",
"$X$X$X$X$X$X$X$X$X$X$X$X$X$X$X$X$X$X$X$X$X$X$XX X c 2.<.<.<.;.1 0 ,.,.,.,./ 8 X $X$X$X$X$X$X$X$X$X$X$X$X$X$X$X$X$X$X$X$X$X$X$X$X",
"$X$X$X$X$X$X$X$X$X$X$X$X$X$X$X$X$X$X$X$X$X$X$X$XX < =.<.2.<.C O $ ^ <.<.<.I $ X $X$X$X$X$X$X$X$X$X$X$X$X$X$X$X$X$X$X$X$X$X$X$X$X",
"$X$X$X$X$X$X$X$X$X$X$X$X$X$X$X$X$X$X$X$X$X$X$X$XX X 9 F I c $ X X q U >.^ d X X $X$X$X$X$X$X$X$X$X$X$X$X$X$X$X$X$X$X$X$X$X$X$X$X",
"$X$X$X$X$X$X$X$X$X$X$X$X$X$X$X$X$X$X$X$X$X$X$X$X$XX . + # o X X X X $ 7 : o X $X$X$X$X$X$X$X$X$X$X$X$X$X$X$X$X$X$X$X$X$X$X$X$X$X",
"$X$X$X$X$X$X$X$X$X$X$X$X$X$X$X$X$X$X$X$X$X$X$X$X$X$X. X X X $X$X$XX X X X X $X$X$X$X$X$X$X$X$X$X$X$X$X$X$X$X$X$X$X$X$X$X$X$X$X$X",
"$X$X$X$X$X$X$X$X$X$X$X$X$X$X$X$X$X$X$X$X$X$X$X$X$X$X$X$X$X$X$X$X$X$X$X$X$X$X$X$X$X$X$X$X$X$X$X$X$X$X$X$X$X$X$X$X$X$X$X$X$X$X$X$X"
};
