/* XPM */
static char *player_3[] = {
/* columns rows colors chars-per-pixel */
"64 64 193 2 ",
"   c #2F313C",
".  c #32323E",
"X  c #343440",
"o  c #3A3744",
"O  c #3B3945",
"+  c #3D3E4A",
"@  c #413947",
"#  c #453B49",
"$  c #4A3D4B",
"%  c #513F4F",
"&  c #42424E",
"*  c #4F404F",
"=  c #444550",
"-  c #494A55",
";  c #4D4E59",
":  c #474853",
">  c #544453",
",  c #5B4454",
"<  c #504F5C",
"1  c #4E515C",
"2  c #51515C",
"3  c #614759",
"4  c #644859",
"5  c #6C4B5E",
"6  c #565761",
"7  c #5C5C66",
"8  c #5D5F69",
"9  c #565A65",
"0  c #744E62",
"q  c #645B68",
"w  c #7B5266",
"e  c #775064",
"r  c #5E626D",
"t  c #62636C",
"y  c #6D636F",
"u  c #6A6D76",
"i  c #696E78",
"p  c #676771",
"a  c #7C6A77",
"s  c #6D727C",
"d  c #75767E",
"f  c #AD4A5F",
"g  c #84556A",
"h  c #8A596F",
"j  c #8E5A71",
"k  c #925B72",
"l  c #995F77",
"z  c #AE4B61",
"x  c #B15367",
"c  c #B4596D",
"v  c #9E617A",
"b  c #8B707F",
"n  c #836D7B",
"m  c #A4637D",
"M  c #BB697B",
"N  c #C45C76",
"B  c #C9617B",
"V  c #747A84",
"C  c #7A7B83",
"Z  c #747C86",
"A  c #96788B",
"S  c #AD6782",
"D  c #B36A85",
"F  c #BB6D89",
"G  c #AE7F92",
"H  c #AB738A",
"J  c #C16E8B",
"K  c #CB6D8C",
"L  c #CE6580",
"P  c #D16485",
"I  c #D5698B",
"U  c #C2708D",
"Y  c #CC7492",
"T  c #D37695",
"R  c #DC7294",
"E  c #DB7B9B",
"W  c #D77998",
"Q  c #D76F91",
"!  c #E86C92",
"~  c #EB7397",
"^  c #EE7499",
"/  c #E37D9E",
"(  c #E77899",
")  c #F0779C",
"_  c #F2799E",
"`  c #E6698F",
"'  c #E47FA0",
"]  c #E87EA0",
"[  c #F57EA2",
"{  c #7A818B",
"}  c #7D8893",
"|  c #85858D",
" . c #868A92",
".. c #89929B",
"X. c #92949A",
"o. c #BF869B",
"O. c #8C98A3",
"+. c #949CA5",
"@. c #9CAAB3",
"#. c #9EA5AD",
"$. c #A3A7AD",
"%. c #A6ABB1",
"&. c #ABB2B9",
"*. c #B4B6BA",
"=. c #D48BA6",
"-. c #D38EAA",
";. c #DA84A3",
":. c #DE93AE",
">. c #ED82A4",
",. c #E888A8",
"<. c #F283A6",
"1. c #F981A6",
"2. c #F585A9",
"3. c #FA85A9",
"4. c #FF8AAE",
"5. c #E395AF",
"6. c #FE8DB1",
"7. c #EB97B3",
"8. c #FE94B5",
"9. c #FF9DBC",
"0. c #F498B7",
"q. c #CFA4BB",
"w. c #D7A8B5",
"e. c #DBB1BA",
"r. c #FFA1BE",
"t. c #A9B9C2",
"y. c #B4BDC3",
"u. c #BABEC3",
"i. c #C8B8CA",
"p. c #D0B0C6",
"a. c #ECADC7",
"s. c #FAAAC5",
"d. c #E6B6CE",
"f. c #E9B0CA",
"g. c #E2BFC6",
"h. c #FFB2C9",
"j. c #FFB9CF",
"k. c #FFBED2",
"l. c #E4B9D0",
"z. c #B9CBD4",
"x. c #BCD2DB",
"c. c #C2C5CA",
"v. c #C8CAD2",
"b. c #DBCADD",
"n. c #DAC9DC",
"m. c #C8D2D7",
"M. c #D3D6DA",
"N. c #D2D4D9",
"B. c #E3C3CA",
"V. c #E3C4D4",
"C. c #FFC3D5",
"Z. c #FFC7D8",
"A. c #EAD2D7",
"S. c #CAD3E2",
"D. c #CADCE5",
"F. c #C6DEEB",
"G. c #C7DAE5",
"H. c #D3D3E3",
"J. c #D3DBE9",
"K. c #D9DBE4",
"L. c #F7DFE6",
"P. c #FFDBE6",
"I. c #C8E2EB",
"U. c #DCE1E4",
"Y. c #D4E3EC",
"T. c #DAE5EA",
"R. c #D8E9EF",
"E. c #CAE7F2",
"W. c #C6E8F3",
"Q. c #CBEAF4",
"!. c #C6E6F2",
"~. c #D3EDF6",
"^. c #DAEDF3",
"/. c #D2E9F3",
"(. c #DDF2F9",
"). c #DBF0F7",
"_. c #E4E9EC",
"`. c #EBEDEF",
"'. c #E7EFF2",
"]. c #F7EEF0",
"[. c #FBECF0",
"{. c #EBF1F4",
"}. c #E4F4FA",
"|. c #EAF6FB",
" X c #EDF8FC",
".X c #E1F0F6",
"XX c #F2F4F5",
"oX c #FEF2F5",
"OX c #F6F7F8",
"+X c #FDF7F9",
"@X c #F3FAFC",
"#X c #FCFDFE",
"$X c #C3E3FF",
/* pixels */
"$X$X$X$X$X$X$X$X$X$X$X$X$X$X$X$X$X$X$X$X$X$X$X$X$X$X$X$X$X$X$X$X$X$X$X$X$X$X$X$X$X$X$X$X$X$X$X$X$X$X$X$X$X$X$X$X$X$X$X$X$X$X$X$X",
"$X$X$X$X$X$X$X$X$X$X$X$X$X$X$X$X$X$X$X$X$X$X$X$X$X$X$X$X$X$X$X$X$X$X$X$X$X$X$X$X$X$X$X$X$X$X$X$X$X$X$X$X$X$X$X$X$X$X$X$X$X$X$X$X",
"$X$X$X$X$X$X$X$X$X$X$X$X$X$X$X$X$X$X$X$X$X$X$X$X$X$X$X$X$X$X$X$X$X$X$X$X$X$X$X$X$X$X$X$X$X$X$X$X$X$X$X$X$X$X$X$X$X$X$X$X$X$X$X$X",
"$X$X$X$X$X$X$X$X$X$X$X$X$X$X$X$X$X$X$X$X$X$X$X$X$X$X$X$X$X$X$X$X$X$X$X$X$X$X$X$X$X$X$X$X$X$X$X$X$X$X$X$X$X$X$X$X$X$X$X$X$X$X$X$X",
"$X$X$X$X$X$X$X$X$X$X$X$X$X$X$X$X$X$X$X$X$X$X$X$X$X$X$X$X$X$X$X$X$X$X$X$X$X$X$X$X$X$X$X$X$X$X$X$X$X$X$X$X$X$X$X$X$X$X$X$X$X$X$X$X",
"$X$X$X$X$X$X$X$X$X$X$X$X$X$X$X$X$X$X$X$X$X$X$X$X$X$X$X$X$X$X$X$X$X$X$X$X$X$X$X$X$X$X$X$X$X$X$X$X$X$X$X$X$X$X$X$X$X$X$X$X$X$X$X$X",
"$X$X$X$X$X$X$X$X$X$X$X$X$X$X$X$X$X$X$X$X$X$X$X$X$X$X$X$X$X$X$X$X$X$X$X$X$X$X$X$X$X$X$X$X$X$X$X$X$X$X$X$X$X$X$X$X$X$X$X$X$X$X$X$X",
"$X$X$X$X$X$X$X$X$X$X$X$X$X$X$X$X$X$X$X$X$X$X$X$X$X$X$X$X$X$X$X$X$X$X$X$X$X$X$X$X$X$X$X$X$X$X$X$X$X$X$X$X$X$X$X$X$X$X$X$X$X$X$X$X",
"$X$X$X$X$X$X$X$X$X$X$X$X$X$X$X$X$X$X$X$X$X$X$X$X$X$X$X$X$X$X$X$X$X$X$X$X$X$X$X$X$X$X$X$X$X$X$X$X$X$X$X$X$X$X$X$X$X$X$X$X$X$X$X$X",
"$X$X$X$X$X$X$X$X$X$X$X$X$X$X$X$X$X$X$X$X$X$X$X$X$X$X$X$X$X$X$X$X$X$X$X$X$X$X$X$X$X$X$X$X$X$X$X$X$X$X$X$X$X$X$X$X$X$X$X$X$X$X$X$X",
"$X$X$X$X$X$X$X$X$X$X$X$X$X$X$X$X$X$X$X$X$X$X$X$X$X$X$X$X$X$X$X$X$X$X$X$X$X$X$X$X$X$X$X$X$X$X$X$X$X$X$X$X$X$X$X$X$X$X$X$X$X$X$X$X",
"$X$X$X$X$X$X$X$X$X$X$X$X$X$X$X$X$X$X$X$X$X$X$X$X$X$X$X$X$X$X$X$X$X$X$X$X$X$X$X$X$X$X$X$X$X$X$X$X$X$X$X$X$X$X$X$X$X$X$X$X$X$X$X$X",
"$X$X$X$X$X$X$X$X$X$X$X$X$X$X$X$X$X$X$X$X$X$X$X$X$X$X$X$X$X$X$X$X$X$X$X$X$X$X$X$X$X$X$X$X$X$X$X$X$X$X$X$X$X$X$X$X$X$X$X$X$X$X$X$X",
"$X$X$X$X$X$X$X$X$X$X$X$X$X$X$X$X$X$X$X$X$X$X$X$X$X$X$X$X$X$X$X$X$X$X$X$X$X$X$X$X$X$X$X$X$X$X$X$X$X$X$X$X$X$X$X$X$X$X$X$X$X$X$X$X",
"$X$X$X$X$X$X$X$X$X$X$X$X$X$X$X$X$X$X$X$X$X$X$X$X$X$X$X$X$X$X$X$X$X$X$X$X$X$X$X$X$X$X$X$X$X$X$X$X$X$X$X$X$X$X$X$X$X$X$X$X$X$X$X$X",
"$X$X$X$X$X$X$X$X$X$X$X$X$X$X$X$X$X$X$X$X$X$X$X$X$X$X$X$X$X$X$X$X$X$X$X$X$X$X$X$X$X$X$X$X$X$X$X$X$X$X$X$X$X$X$X$X$X$X$X$X$X$X$X$X",
"$X$X$X$X$X$X$X$X$X$X$X$X$X$X$X$X$X$X$X$X$X$X$X$X$X$X. . . . . . . . . . . . $X$X$X$X$X$X$X$X$X$X$X$X$X$X$X$X$X$X$X$X$X$X$X$X$X$X",
"$X$X$X$X$X$X$X$X$X$X$X$X$X$X$X$X$X$X$X$X$X$X$XX . . O = 7 d | | | | C t ; O . . X $X$X$X$X$X$X$X$X$X$X$X$X$X$X$X$X$X$X$X$X$X$X$X",
"$X$X$X$X$X$X$X$X$X$X$X$X$X$X$X$X$X$X$X$X$X$XX . & u %.M.`.OX+X#X+X#XOX].U.*.d & X . . $X$X$X$X$X$X$X$X$X$X$X$X$X$X$X$X$X$X$X$X$X",
"$X$X$X$X$X$X$X$X$X$X$X$X$X$X$X$X$X$X$X$XX . O d c.XX+X#X#X#X#X#X#X#X#X#X#X#XOXm.| & . O $X$X$X$X$X$X$X$X$X$X$X$X$X$X$X$X$X$X$X$X",
"$X$X$X$X$X$X$X$X$X$X$X$X$X$X$X$X$X$X$XX . 1 %.XX#X#X#X+X#XXX`.`.`.`.{.+X#X#X#X#XOXz.q . . $X$X$X$X$X$X$X$X$X$X$X$X$X$X$X$X$X$X$X",
"$X$X$X$X$X$X$X$X$X$X$X$X$X$X$X$X$X$XX . t v.@X#X#X@X`.z.X.d t t 7 r u ..*._.#X#X#X#XU.d . . $X$X$X$X$X$X$X$X$X$X$X$X$X$X$X$X$X$X",
"$X$X$X$X$X$X$X$X$X$X$X$X$X$X$X$X$XX . 7 N.#X@X#X{.*.p & . . . . . . . . @ t $._.#X#X#X_.d . . $X$X$X$X$X$X$X$X$X$X$X$X$X$X$X$X$X",
"$X$X$X$X$X$X$X$X$X$X$X$X$X$X$X$XX . 2 v.@X@X#XM.d O . . . . O . . . . . . . . t z.OXOX@X_.s . . $X$X$X$X$X$X$X$X$X$X$X$X$X$X$X$X",
"$X$X$X$X$X$X$X$X$X$X$X$X$X$X$X$X. & z.OX@X@Xm.7 . . . O . O . . @ : ; 2 ; ; & . - &.OXOX@XN.2 . $X$X$X$X$X$X$X$X$X$X$X$X$X$X$X$X",
"$X$X$X$X$X$X$X$X$X$X$X$X$X$X$XX O +.OXXX@XM.r   . . o . . . . O ; r 6 r r 7 7 2 O - z.XX X@X*.& . $X$X$X$X$X$X$X$X$X$X$X$X$X$X$X",
"$X$X$X$X$X$X$X$X$X$X$X$X$X$X$X. t T. X XU.p . . O . . . . @ # q y y t 2 7 7 7 7 ; . 1 m.@X X{.d . X $X$X$X$X$X$X$X$X$X$X$X$X$X$X",
"$X$X$X$X$X$X$X$X$X$X$X$X$X$XX O &. X X{. .. . O . . @ 0 m Y ;.7.7.7.=.o.n t 7 7 7 & . i _.|.@Xz.& . $X$X$X$X$X$X$X$X$X$X$X$X$X$X",
"$X$X$X$X$X$X$X$X$X$X$X$X$X$X. 7 U. X Xz.O . . . O 5 U 2.6.6.9.r.r.r.r.r.7.o.a 7 7 2 o o %. X|.'.s X $X$X$X$X$X$X$X$X$X$X$X$X$X$X",
"$X$X$X$X$X$X$X$X$X$X$X$X$XX . ..|. X.Xd . . . O v >.4.4.4.6.r.r.r.r.r.r.r.r.5.b 7 6 O . r T.|. X$.X X $X$X$X$X$X$X$X$X$X$X$X$X$X",
"$X$X$X$X$X$X$X$X$X$X$X$X$X. + *.|.|.m.: . . O k <.4.3.4.4.6.r.r.r.r.r.r.r.r.r.5.n 6 O . + y.|.|.m.= . $X$X$X$X$X$X$X$X$X$X$X$X$X",
"$X$X$X$X$X$X$X$X$X$X$X$X$X. - D.|.|.#.O . . g 2.6.8.8.6.3.4.9.r.r.r.r.r.r.r.r.r.5.q o X . ..|.|.Y.9 . $X$X$X$X$X$X$X$X$X$X$X$X$X",
"$X$X$X$X$X$X$X$X$X$X$X$X$X  7 T.{.}.} . X > W 4.8.9.r.9.4.4.8.9.r.r.r.r.r.r.r.r.r.H X X . s ^.|.^.s . $X$X$X$X$X$X$X$X$X$X$X$X$X",
"$X$X$X$X$X$X$X$X$X$X$X$X$X. i R.|.^.s . . j 4.4.8.r.r.r.8.4.8.h.C.C.C.h.r.r.r.r.9.,.> X X 8 T.}..XC . $X$X$X$X$X$X$X$X$X$X$X$X$X",
"$X$X$X$X$X$X$X$X$X$X$X$X$X. i ^.}./.i   O F 4.4.8.9.r.9.6.4.C.oX+X+X#X+XZ.r.r.8.8.3.g   . 9 Y.}.(.{ . $X$X$X$X$X$X$X$X$X$X$X$X$X",
"$X$X$X$X$X$X$X$X$X$X$X$X$X. i ^.}.R.s . $ / 4.4.4.8.8.6.4.h.+X#X+XA.B.A.oXC.8.6.4.4.S X . 9 Y.}.(.C . $X$X$X$X$X$X$X$X$X$X$X$X$X",
"$X$X$X$X$X$X$X$X$X$X$X$X$X. r Y.(.^.Z . $ >.4.4.3.4.4.4.6.P.#X#Xe.c x c e.P.6.4.4.4.S o   p R.(.^.d . $X$X$X$X$X$X$X$X$X$X$X$X$X",
"$X$X$X$X$X$X$X$X$X$X$X$X$XX 1 D.(.(.... # >.4.4.4.4.4.4.8.oX#XoXM f z f M L.8.4.4.6.S X   { ^.(.Y.r . $X$X$X$X$X$X$X$X$X$X$X$X$X",
"$X$X$X$X$X$X$X$X$X$X$X$X$XX & z.(.(.&.O # W 6.4.4.4.4.4.8.oX#X[.M f f f M L.8.6.4.6.v X X +.(.(.G.1 . $X$X$X$X$X$X$X$X$X$X$X$X$X",
"$X$X$X$X$X$X$X$X$X$X$X$X$XX X @.(.~.G.1 @ Y 6.4.4.4.4.3.8.P.#X#Xw.x f x e.P.6.4.2.6.v   = z.).).t.+ . $X$X$X$X$X$X$X$X$X$X$X$X$X",
"$X$X$X$X$X$X$X$X$X$X$X$X$X$X. Z ~.~.~.} O U 6.4.4.6.4.4.4.h.+X#X+XB.w.B.[.h.4.4.4.4.h   s /.~.)...X X $X$X$X$X$X$X$X$X$X$X$X$X$X",
"$X$X$X$X$X$X$X$X$X$X$X$X$X$XX - x.~.).z.1 D 6.4.4.4.4.4.4.6.k.oX#X#X#X[.h.4.4.4.4.4.g O t.~.~.I.9 . $X$X$X$X$X$X$X$X$X$X$X$X$X$X",
"$X$X$X$X$X$X$X$X$X$X$X$X$X$XX X ..~.~.~.O.D 4.4.4.4.4.4.4.4.4.r.C.C.C.r.4.4.4.4.4.2.w Z E.~.~.@.O X $X$X$X$X$X$X$X$X$X$X$X$X$X$X",
"$X$X$X$X$X$X$X$X$X$X$X$X$X$X$XX 1 x.).~.F.q.4.4.4.4.4.6.4.4.4.! >.4.1.~ 3.4.4.4.6.2.A x.~.~.F.r . $X$X$X$X$X$X$X$X$X$X$X$X$X$X$X",
"$X$X$X$X$X$X$X$X$X$X$X$X$X$X$XX   Z I.~.~.J.a.4.4.4.4.4.4.4.4.N N B B N 3.4.4.4.4.0.H.Q.~.~.+.o X $X$X$X$X$X$X$X$X$X$X$X$X$X$X$X",
"$X$X$X$X$X$X$X$X$X$X$X$X$X$X$XX X > i.Q.~.Q.Y.a.6.6.4.4.4.4.6.[ B B B >.4.4.4.4.s.J.Q.~.Q.n.U , X X $X$X$X$X$X$X$X$X$X$X$X$X$X$X",
"$X$X$X$X$X$X$X$X$X$X$X$X$X$XX X , Y 6.b.~.Q.~.E.l.0.4.4.4.4.4.4.4.4.4.4.4.3.8.d.J.Q.Q.Q.H.,.^ Q 5 X X $X$X$X$X$X$X$X$X$X$X$X$X$X",
"$X$X$X$X$X$X$X$X$X$X$X$X$XX X 5 E 6.4.8.n.Q.Q.Q.E.J.f.0.6.4.4.4.4.3.3.6.8.a.M.Q.W.Q.Q.H.,.^ _ _ R 4 X X $X$X$X$X$X$X$X$X$X$X$X$X",
"$X$X$X$X$X$X$X$X$X$X$X$X$XX , / 6.4.4.4.8.n.E.E.W.Q.W.J.b.l.f.f.f.a.f.n.J.E.Q.W.Q.E.b.,.^ ) _ [ 1.K # X $X$X$X$X$X$X$X$X$X$X$X$X",
"$X$X$X$X$X$X$X$X$X$X$X$XX O F 6.4.4.4.4.4.4.a.H.W.Q.Q.W.W.W.W.W.W.W.W.W.W.W.W.W.F.d.6.) ) ) [ [ 1.[ 5 X $X$X$X$X$X$X$X$X$X$X$X$X",
"$X$X$X$X$X$X$X$X$X$X$X$XX $ ] 4.4.4.4.4.2.<.3.7.p.G.!.W.W.W.W.W.W.W.W.W.W.W.G.i.5.4./ g Q [ [ 1.4.>.5 . $X$X$X$X$X$X$X$X$X$X$X$X",
"$X$X$X$X$X$X$X$X$X$X$X$XX # W 6.4.4.4.>.k T 4.4.>.;.q.i.S.F.F.F.F.F.F.S.i.p.-.' 2.4.R # 5 ( 1.4.4.T # X $X$X$X$X$X$X$X$X$X$X$X$X",
"$X$X$X$X$X$X$X$X$X$X$X$XX X j 2.4.4.>.g % ;.4.4.6.3.] ' E -.-.-.-.-.-.;.E ] [ 4.4.[ I $ . 0 J T S , X X $X$X$X$X$X$X$X$X$X$X$X$X",
"$X$X$X$X$X$X$X$X$X$X$X$X$XX O e F F e X 5 2.4.4.4.6.4.4.3.<.[ ] [ [ ] 2.4.4.6.4.3.^ P # X X @ # o X X $X$X$X$X$X$X$X$X$X$X$X$X$X",
"$X$X$X$X$X$X$X$X$X$X$X$X$X$XX X O O . . m 3.4.4.4.4.4.4.6.4.4.6.6.4.6.4.6.4.4.[ ^ ` P $ X X X . X $X$X$X$X$X$X$X$X$X$X$X$X$X$X$X",
"$X$X$X$X$X$X$X$X$X$X$X$X$X$X$X$XX X X * E 4.4.4.4.4.3.6.4.4.4.4.4.4.4.4.4.4.[ ^ ! ! P # X $X$X$X$X$X$X$X$X$X$X$X$X$X$X$X$X$X$X$X",
"$X$X$X$X$X$X$X$X$X$X$X$X$X$X$X$X$XX X k 4.4.4.4.6.] j F >.3.6.6.6.4.4.>.T ( ~ ~ ^ ^ I # X $X$X$X$X$X$X$X$X$X$X$X$X$X$X$X$X$X$X$X",
"$X$X$X$X$X$X$X$X$X$X$X$X$X$X$X$X$X. > / 4.4.4.4.6.D O O , w l l S l h , % K ) ] ) _ R $ X $X$X$X$X$X$X$X$X$X$X$X$X$X$X$X$X$X$X$X",
"$X$X$X$X$X$X$X$X$X$X$X$X$X$X$X$X$XX g 4.4.4.4.4.<.5 X X X X X X X X X   @ Q [ [ [ [ ( $ X $X$X$X$X$X$X$X$X$X$X$X$X$X$X$X$X$X$X$X",
"$X$X$X$X$X$X$X$X$X$X$X$X$X$X$X$X$XX g 4.4.4.4.4.S O X $X$X$X$XX X X $XX O K [ [ 1.[ T # . $X$X$X$X$X$X$X$X$X$X$X$X$X$X$X$X$X$X$X",
"$X$X$X$X$X$X$X$X$X$X$X$X$X$X$X$X$XX * T 4.4.4.E , X $X$X$X$X$X$X$X$X$XX X w [ 6.4.2.k X X $X$X$X$X$X$X$X$X$X$X$X$X$X$X$X$X$X$X$X",
"$X$X$X$X$X$X$X$X$X$X$X$X$X$X$X$X$XX X , v U D 3 X X $X$X$X$X$X$X$X$X$X$XX o w F J h o X $X$X$X$X$X$X$X$X$X$X$X$X$X$X$X$X$X$X$X$X",
"$X$X$X$X$X$X$X$X$X$X$X$X$X$X$X$X$X$XX . o O o . X $X$X$X$X$X$X$X$X$X$X$X$XX X O O . X $X$X$X$X$X$X$X$X$X$X$X$X$X$X$X$X$X$X$X$X$X",
"$X$X$X$X$X$X$X$X$X$X$X$X$X$X$X$X$X$X$X$XX X X X $X$X$X$X$X$X$X$X$X$X$X$X$X$XX X X X $X$X$X$X$X$X$X$X$X$X$X$X$X$X$X$X$X$X$X$X$X$X"
};
