/* XPM */
static char *wall[] = {
/* columns rows colors chars-per-pixel */
"64 64 31 1 ",
"  c #343440",
". c #353540",
"X c #353541",
"o c #7E5C53",
"O c #895948",
"+ c #945E48",
"@ c #976A59",
"# c #BD6341",
"$ c #BF6441",
"% c #C56944",
"& c #C76B45",
"* c #CB6E47",
"= c #CD7048",
"- c #C8744D",
"; c #D7784C",
": c #D97A4D",
"> c #DE7E4F",
", c #DB8159",
"< c #DF845C",
"1 c #E18253",
"2 c #E58657",
"3 c #E88A5C",
"4 c #C88465",
"5 c #EC8E60",
"6 c #ED986E",
"7 c #F19467",
"8 c #F39669",
"9 c #F2976B",
"0 c #F89C6F",
"q c #FA9F72",
"w c None",
/* pixels */
"wwwwwX  XXXXXXXXXXXXXXXXXXXXXXXXXXXXXXXXXXXXXXXXXXXXXXXX   wwwww",
"wwwXXXXXXXXXXXXXXXXXXXXXXXXXXXXXXXXXXXXXXXXXXXXXXXXXXXXXXXXXXwww",
"wXXXXXXXXXXXXXXXXXXXXXXXXXXXXXXXXXXXXXXXXXXXXXXXXXXXXXXXXXXXXXXw",
"wXXXXXXXXXXXXXXXXXXXXXXXXXXXXXXXXXXXXXXXXXXXXXXXXXXXXXXXXXXXXXXw",
"XXXXXo44qqqqqqqqqqqqqqqqqqqqqqqqqqqqqqqqqqqqqqqqqqqqqqqq44oXXXXX",
".XXX@qqqqqqqqqqqqqqqqqqqqqqqqqqqqqqqqqqqqqqqqqqqqqqqqqqqqqq@XXX.",
"XXXX6qqqqqqqqqqqqqqqqqqqqqqqqqqqqqqqqqqqqqqqqqqqqqqqqqqqqqq6XXXX",
"XXXXqqqqqqqqqqqqqqqqqqqqqqqqqqqqqqqqqqqqqqqqqqqqqqqqqqqqqqqqXXXX",
"XXXXq722>>>>>>>>>>>>>>>>>>>>>>>>>>>>>>>>>>>>>>>>>>>>>>>>227qXXXX",
"XXXX7>>>>>>>>>>>>>>>>>>>>>>>>>>>>>>>>>>>>>>>>>>>>>>>>>>>>>>7XXXX",
"XXXX1>>>>>>>>>>>>>>>>>>>>>>>>>>>>>>>>>>>>>>>>>>>>>>>>>>>>>>1XXXX",
"XXXX>>>>>>>>>>>>>>>>>>>>>>>>>>>>>>>>>>>>>>>>>>>>>>>>>>>>>>>>XXXX",
"XXXX>>>>>388qqqqqqqq883>>>>>>>>>>>>>>>>>>>>>>>>>>>>>>>>>>>>>XXXX",
"XXXX>>>>3qqqqqqqqqqqqqq5>>>>>>>>>>>>>>>>>>>>>>>>>>>>>>>>>>>>XXXX",
"XXXX>>>>qqqqqqqqqqqqqqq0>>>>>>>>>>>>>>>>>>>>>>>>>>>>>>>>>>>>XXXX",
"XXXX>>>>qqqqqqqqqqqqqqqq>>>>>>>>>>>>>>>>>>>>>>>>>>>>>>>>>>>>XXXX",
"XXXX>>>>qqqqqqqqqqqqqqqq>>>>>>>>>>>>>>>>>>>>>>>>>>>>>>>>>>>>XXXX",
"XXXX>>>>qqqqqqqqqqqqqqqq>>>>>>>>>>>>>>>>>>>>>>>>>>>>>>>>>>>>XXXX",
"XXXX>>>>qqqqqqqqqqqqqqqq>>>>*&########%*>>>>>>>>>>>>>>>>>>>>XXXX",
"XXXX>>>>qqqqqqqqqqqqqqqq>>>>############>>>>>>>>>>>>>>>>>>>>XXXX",
"XXXX>>>>qqqqqqqqqqqqqqqq>>>>############>>>>>>>>>>>>>>>>>>>>XXXX",
"XXXX>>>>8qqqqqqqqqqqqqq9>>>>############>>>>>>>>>>>>>>>>>>>>XXXX",
"XXXX>>>>,qqqqqqqqqqqqqq,>>>>############>>>>>>>>>>>>>>>>>>>>XXXX",
"XXXX>>>>#<qqqqqqqqqqqq<#>>>>############>>>>>>>>>>>>>>>>>>>>XXXX",
"XXXX>>>>&##############&>>>>############>>>>>>>>>>>>>>>>>>>>XXXX",
"XXXX>>>>;$############$;>>>>*##########*>>>>>>>>>>>>>>>>>>>>XXXX",
"XXXX>>>>>:============:>>>>>>>>>>>>>>>>>>>>>>>>>>>>>>>>>>>>>XXXX",
"XXXX>>>>>>>>>>>>>>>>>>>>>>>>>>>>>>>>>>>>>>>>>>>>>>>>>>>>>>>>XXXX",
"XXXX>>>>>>>>>>>>>>>>>>>>>>>>>>>>>>>>>>>>>>>>>>>>>>>>>>>>>>>>XXXX",
"XXXX>>>>>>>>>>>>>>>>>>>>>>>>>>>>>>>>>>>>>>>>>>>>>>>>>>>>>>>>XXXX",
"XXXX>>>>>>>>>>>>>>>>>>>>>>>>>>>>>>>>>>>>>>>>>>>>>>>>>>>>>>>>XXXX",
"XXXX>>>>>>>>>>>>>>>>>>>>>>>>>>>>>>>>>>>>>>>>>>>>>>>>>>>>>>>>XXXX",
"XXXX>>>>>>>>>>>>>>>>>>>>>>>>>>>>>>>>>>>>>>>>>>>>>>>>>>>>>>>>XXXX",
"XXXX>>>>>>>>>>>>>>>>>>>>>>>>>>>>>>>>>>>>>388qqqqqqqq883>>>>>XXXX",
"XXXX>>>>>>>>>>>>>>>>>>>>>>>>>>>>>>>>>>>>5qqqqqqqqqqqqqq5>>>>XXXX",
"XXXX>>>>>>>>>>>>>>>>>>>>>>>>>>>>>>>>>>>>0qqqqqqqqqqqqqq0>>>>XXXX",
"XXXX>>>>>>>>>>>>>>>>>>>>>>>>>>>>>>>>>>>>qqqqqqqqqqqqqqqq>>>>XXXX",
"XXXX>>>>>>>>>>>>>>>>*%########%*>>>>>>>>qqqqqqqqqqqqqqqq>>>>XXXX",
"XXXX>>>>>>>>>>>>>>>>############>>>>>>>>qqqqqqqqqqqqqqqq>>>>XXXX",
"XXXX>>>>>>>>>>>>>>>>############>>>>>>>>qqqqqqqqqqqqqqqq>>>>XXXX",
"XXXX>>>>>>>>>>>>>>>>############>>>>>>>>qqqqqqqqqqqqqqqq>>>>XXXX",
"XXXX>>>>>>>>>>>>>>>>############>>>>>>>>qqqqqqqqqqqqqqqq>>>>XXXX",
"XXXX>>>>>>>>>>>>>>>>############>>>>>>>>8qqqqqqqqqqqqqq8>>>>XXXX",
"XXXX>>>>>>>>>>>>>>>>############>>>>>>>>,qqqqqqqqqqqqqq,>>>>XXXX",
"XXXX>>>>>>>>>>>>>>>>*##########*>>>>>>>>#<qqqqqqqqqqqq<#>>>>XXXX",
"XXXX>>>>>>>>>>>>>>>>>>>>>>>>>>>>>>>>>>>>&#######$######&>>>>XXXX",
"XXXX>>>>>>>>>>>>>>>>>>>>>>>>>>>>>>>>>>>>;$############$;>>>>XXXX",
"XXXX>>>>>>>>>>>>>>>>>>>>>>>*%########%*>>:============:>>>>>XXXX",
"XXXX>>>>>>>>>>>>>>>>>>>>>>>############>>>>>>>>>>>>>>>>>>>>>XXXX",
"XXXX>>>>>>>>>>>>>>>>>>>>>>>############>>>>>>>>>>>>>>>>>>>>>XXXX",
"XXXX>>>>>>>>>>>>>>>>>>>>>>>############>>>>>>>>>>>>>>>>>>>>>XXXX",
"XXXX>>>>>>>>>>>>>>>>>>>>>>>############>>>>>>>>>>>>>>>>>>>>>XXXX",
"XXXX>>>>>>>>>>>>>>>>>>>>>>>############>>>>>>>>>>>>>>>>>>>>>XXXX",
"XXXX>>>>>>>>>>>>>>>>>>>>>>>############>>>>>>>>>>>>>>>>>>>>>XXXX",
"XXXX>>>>>>>>>>>>>>>>>>>>>>>*##########*>>>>>>>>>>>>>>>>>>>>>XXXX",
"XXXX>>>>>>>>>>>>>>>>>>>>>>>>>>>>>>>>>>>>>>>>>>>>>>>>>>>>>>>>XXXX",
"XXXX>>>>>>>>>>>>>>>>>>>>>>>>>>>>>>>>>>>>>>>>>>>>>>>>>>>>>>>>XXXX",
"XXXX->>>>>>>>>>>>>>>>>>>>>>>>>>>>>>>>>>>>>>>>>>>>>>>>>>>>>>-XXXX",
" XXXO>>>>>>>>>>>>>>>>>>>>>>>>>>>>>>>>>>>>>>>>>>>>>>>>>>>>>>OXXXX",
" XXXX+>>>>>>>>>>>>>>>>>>>>>>>>>>>>>>>>>>>>>>>>>>>>>>>>>>>>+XXXXX",
"wXXXXXXXXXXXXXXXXXXXXXXXXXXXXXXXXXXXXXXXXXXXXXXXXXXXXXXXXXXXXXXw",
"wwXXXXXXXXXXXXXXXXXXXXXXXXXXXXXXXXXXXXXXXXXXXXXXXXXXXXXXXXXXXXww",
"wwXXXXXXXXXXXXXXXXXXXXXXXXXXXXXXXXXXXXXXXXXXXXXXXXXXXXXXXXXXXXww",
"wwww  XXXXXXXXXXXXXXXXXXXXXXXXXXXXXXXXXXXXXXXXXXXXXXXXXXXX Xwwww"
};
